<svg width="359" height="350" viewBox="0 0 359 350" fill="none" xmlns="http://www.w3.org/2000/svg">
<rect x="0.15" y="0.15" width="358.7" height="349.7" rx="19.85" fill="white" stroke="black" stroke-width="0.3"/>
<path d="M263.805 117.202L206.527 157.773V117.202L146.756 159.538L141.771 82.3339H91.9652L82 256.666H277L263.805 117.202Z" fill="url(#paint0_linear_148_62)"/>
<rect width="359" height="350" rx="20" fill="#5F01AB" fill-opacity="0.78"/>
<path d="M60.8306 163H85.8706V153H60.8306V163ZM60.8306 185.08H85.0706V175.56H60.8306V185.08ZM53.4706 153V209H64.5106V153H53.4706ZM100.339 197.56C100.339 196.493 100.579 195.613 101.059 194.92C101.539 194.173 102.286 193.613 103.299 193.24C104.313 192.813 105.619 192.6 107.219 192.6C109.193 192.6 111.059 192.867 112.819 193.4C114.633 193.933 116.259 194.733 117.699 195.8V191C117.166 190.36 116.286 189.693 115.059 189C113.833 188.307 112.313 187.72 110.499 187.24C108.739 186.76 106.686 186.52 104.339 186.52C99.7527 186.52 96.206 187.56 93.6994 189.64C91.1927 191.72 89.9394 194.547 89.9394 198.12C89.9394 200.627 90.526 202.76 91.6994 204.52C92.926 206.227 94.526 207.533 96.4994 208.44C98.4727 209.347 100.606 209.8 102.899 209.8C105.139 209.8 107.273 209.4 109.299 208.6C111.379 207.8 113.059 206.6 114.339 205C115.673 203.4 116.339 201.427 116.339 199.08L115.059 194.28C115.059 196.04 114.659 197.56 113.859 198.84C113.059 200.067 112.019 201.027 110.739 201.72C109.459 202.36 108.019 202.68 106.419 202.68C105.299 202.68 104.259 202.493 103.299 202.12C102.393 201.693 101.673 201.107 101.139 200.36C100.606 199.56 100.339 198.627 100.339 197.56ZM96.3394 182.6C96.8727 182.227 97.6994 181.773 98.8194 181.24C99.9394 180.707 101.273 180.253 102.819 179.88C104.366 179.507 105.993 179.32 107.699 179.32C108.819 179.32 109.833 179.427 110.739 179.64C111.646 179.853 112.419 180.2 113.059 180.68C113.753 181.16 114.259 181.773 114.579 182.52C114.899 183.213 115.059 184.067 115.059 185.08V209H125.059V182.92C125.059 180.413 124.366 178.307 122.979 176.6C121.593 174.84 119.673 173.507 117.219 172.6C114.766 171.693 111.966 171.24 108.819 171.24C105.406 171.24 102.313 171.72 99.5394 172.68C96.766 173.587 94.4194 174.547 92.4994 175.56L96.3394 182.6ZM142.538 190.6C142.538 188.52 143.018 186.68 143.978 185.08C144.938 183.48 146.218 182.227 147.818 181.32C149.471 180.36 151.285 179.88 153.258 179.88C154.751 179.88 156.245 180.12 157.738 180.6C159.231 181.08 160.591 181.773 161.818 182.68C163.098 183.533 164.058 184.547 164.698 185.72V175.08C163.418 173.96 161.738 173.08 159.658 172.44C157.631 171.747 155.258 171.4 152.538 171.4C148.645 171.4 145.125 172.2 141.978 173.8C138.885 175.4 136.431 177.64 134.618 180.52C132.858 183.4 131.978 186.76 131.978 190.6C131.978 194.387 132.858 197.747 134.618 200.68C136.431 203.56 138.885 205.8 141.978 207.4C145.125 209 148.645 209.8 152.538 209.8C155.258 209.8 157.631 209.48 159.658 208.84C161.738 208.147 163.418 207.213 164.698 206.04V195.4C164.058 196.573 163.125 197.613 161.898 198.52C160.725 199.373 159.391 200.067 157.898 200.6C156.405 201.08 154.858 201.32 153.258 201.32C151.285 201.32 149.471 200.867 147.818 199.96C146.218 199.053 144.938 197.8 143.978 196.2C143.018 194.6 142.538 192.733 142.538 190.6ZM169.119 172.2V180.92H191.839V172.2H169.119ZM175.439 159.4V209H185.439V159.4H175.439ZM194.874 190.6C194.874 194.387 195.754 197.747 197.514 200.68C199.328 203.56 201.754 205.8 204.794 207.4C207.888 209 211.381 209.8 215.274 209.8C219.168 209.8 222.634 209 225.674 207.4C228.768 205.8 231.194 203.56 232.954 200.68C234.768 197.747 235.674 194.387 235.674 190.6C235.674 186.76 234.768 183.4 232.954 180.52C231.194 177.64 228.768 175.4 225.674 173.8C222.634 172.2 219.168 171.4 215.274 171.4C211.381 171.4 207.888 172.2 204.794 173.8C201.754 175.4 199.328 177.64 197.514 180.52C195.754 183.4 194.874 186.76 194.874 190.6ZM205.434 190.6C205.434 188.52 205.861 186.68 206.714 185.08C207.621 183.48 208.821 182.253 210.314 181.4C211.808 180.547 213.461 180.12 215.274 180.12C217.088 180.12 218.741 180.547 220.234 181.4C221.728 182.253 222.901 183.48 223.754 185.08C224.661 186.68 225.114 188.52 225.114 190.6C225.114 192.68 224.661 194.52 223.754 196.12C222.901 197.667 221.728 198.893 220.234 199.8C218.741 200.653 217.088 201.08 215.274 201.08C213.461 201.08 211.808 200.653 210.314 199.8C208.821 198.893 207.621 197.667 206.714 196.12C205.861 194.52 205.434 192.68 205.434 190.6ZM253.608 172.2H243.448V209H253.608V172.2ZM264.408 183L269.128 174.2C268.381 173.24 267.395 172.52 266.168 172.04C264.995 171.56 263.741 171.32 262.408 171.32C260.488 171.32 258.621 172.013 256.808 173.4C254.995 174.733 253.528 176.547 252.408 178.84C251.288 181.08 250.728 183.667 250.728 186.6L253.608 189.48C253.608 187.72 253.821 186.227 254.248 185C254.728 183.72 255.421 182.733 256.328 182.04C257.235 181.347 258.328 181 259.608 181C260.675 181 261.555 181.187 262.248 181.56C262.995 181.88 263.715 182.36 264.408 183ZM312.082 172.2H301.282L289.682 201.32L294.802 201.48L282.962 172.2H271.442L286.722 205.32L277.442 226.6H288.082L312.082 172.2Z" fill="white"/>
<defs>
<linearGradient id="paint0_linear_148_62" x1="55.866" y1="47.8763" x2="329.268" y2="298.16" gradientUnits="userSpaceOnUse">
<stop stop-color="#7E019D"/>
<stop offset="1" stop-color="#A0018A"/>
</linearGradient>
</defs>
</svg>
