<svg width="74" height="74" viewBox="0 0 74 74" fill="none" xmlns="http://www.w3.org/2000/svg">
<circle cx="37" cy="37" r="37" fill="#7303A6"/>
<path d="M37.3451 35.5987V41.3714H51.1446C50.9168 44.1952 49.7637 46.7123 47.9904 48.6558L47.9989 48.6459C45.4325 51.2616 41.862 52.8816 37.9132 52.8816C37.7136 52.8816 37.5153 52.8773 37.317 52.8689L37.3451 52.8703C28.9836 52.8661 22.2068 46.088 22.2068 37.725C22.2068 37.6533 22.2068 37.5816 22.2082 37.5112V37.5225C22.2068 37.462 22.2068 37.3903 22.2068 37.3186C22.2068 28.957 28.9836 22.1775 37.3451 22.1733C37.4014 22.1719 37.4675 22.1719 37.535 22.1719C41.5034 22.1719 45.1048 23.7483 47.7471 26.3077L47.7429 26.3034L51.8042 22.2422C48.1929 18.6169 43.1965 16.3725 37.6756 16.3725C37.5603 16.3725 37.445 16.3739 37.3296 16.3753H37.3465C37.3437 16.3753 37.3395 16.3753 37.3353 16.3753C25.6114 16.3753 16.0868 25.7958 15.9209 37.4817V37.4972C16.0868 49.1972 25.6114 58.6191 37.3353 58.6191C37.3395 58.6191 37.3437 58.6191 37.3479 58.6191C37.5856 58.6289 37.864 58.6359 38.1439 58.6359C43.617 58.6359 48.56 56.3634 52.0798 52.7114L52.0854 52.7058C55.1904 49.3195 57.0931 44.7886 57.0931 39.8119C57.0931 39.6009 57.0903 39.39 57.0832 39.1805L57.0847 39.2114C57.0861 39.1355 57.0861 39.0441 57.0861 38.9541C57.0861 37.7672 56.975 36.607 56.7612 35.482L56.7795 35.5973L37.3451 35.5987Z" fill="white"/>
</svg>
