<svg width="864" height="764" viewBox="0 0 864 764" fill="none" xmlns="http://www.w3.org/2000/svg">
<path fill-rule="evenodd" clip-rule="evenodd" d="M119.53 345.912C123.661 343.429 128.4 342.116 133.231 342.116C138.062 342.116 142.801 343.429 146.932 345.912L208.624 383.001C212.512 385.338 215.726 388.629 217.958 392.557C220.189 396.485 221.361 400.918 221.362 405.427V465.197C221.361 469.706 220.189 474.139 217.958 478.067C215.726 481.995 212.512 485.287 208.624 487.623L146.932 524.712C142.801 527.195 138.062 528.508 133.231 528.508C128.4 528.508 123.661 527.195 119.53 524.712L57.8379 487.623C53.9503 485.287 50.7357 481.995 48.5044 478.067C46.2732 474.139 45.1006 469.706 45.1 465.197V405.427C45.1006 400.918 46.2732 396.485 48.5044 392.557C50.7357 388.629 53.9503 385.338 57.8379 383.001L119.53 345.912ZM137.802 360.867C136.424 360.037 134.843 359.599 133.231 359.599C131.619 359.599 130.038 360.037 128.66 360.867L66.9683 397.944C65.672 398.724 64.6005 399.822 63.8574 401.133C63.1143 402.444 62.7247 403.923 62.7262 405.427V465.197C62.7247 466.701 63.1143 468.18 63.8574 469.491C64.6005 470.802 65.672 471.9 66.9683 472.68L128.66 509.757C130.038 510.587 131.619 511.025 133.231 511.025C134.843 511.025 136.424 510.587 137.802 509.757L199.494 472.68C200.79 471.9 201.862 470.802 202.605 469.491C203.348 468.18 203.737 466.701 203.736 465.197V405.427C203.737 403.923 203.348 402.444 202.605 401.133C201.862 399.822 200.79 398.724 199.494 397.944L137.802 360.867Z" fill="white"/>
<path fill-rule="evenodd" clip-rule="evenodd" d="M242.177 520.998C243.711 518.241 245.972 515.948 248.713 514.365C251.454 512.782 254.571 511.972 257.725 512.021L304.823 512.759C307.791 512.805 310.688 513.611 313.235 515.099C315.782 516.587 317.892 518.706 319.363 521.252L338.853 555.011C340.323 557.558 341.104 560.445 341.118 563.395C341.133 566.344 340.383 569.256 338.939 571.85L316.029 613.007C314.495 615.763 312.234 618.057 309.493 619.639C306.752 621.222 303.635 622.032 300.481 621.983L253.383 621.245C250.416 621.199 247.518 620.393 244.971 618.905C242.424 617.418 240.314 615.298 238.843 612.752L219.353 578.993C217.883 576.447 217.103 573.559 217.088 570.609C217.073 567.66 217.823 564.748 219.267 562.155L242.177 520.998ZM257.421 523.458C256.369 523.441 255.329 523.711 254.414 524.239C253.499 524.767 252.745 525.533 252.234 526.453L229.32 567.603C228.839 568.468 228.59 569.44 228.595 570.424C228.601 571.407 228.862 572.37 229.354 573.219L248.844 606.978C249.334 607.828 250.037 608.535 250.886 609.032C251.735 609.529 252.701 609.799 253.691 609.814L300.785 610.546C301.838 610.563 302.878 610.293 303.792 609.765C304.707 609.237 305.461 608.471 305.972 607.551L328.886 566.401C329.367 565.536 329.617 564.564 329.611 563.58C329.605 562.597 329.344 561.634 328.852 560.785L309.362 527.026C308.872 526.177 308.169 525.469 307.32 524.972C306.471 524.475 305.505 524.206 304.515 524.19L257.421 523.458Z" fill="white"/>
<path fill-rule="evenodd" clip-rule="evenodd" d="M279.013 343.177C280.548 340.421 282.808 338.127 285.549 336.545C288.29 334.962 291.407 334.151 294.561 334.2L341.659 334.939C344.627 334.985 347.524 335.791 350.071 337.278C352.618 338.766 354.729 340.885 356.199 343.432L375.69 377.19C377.16 379.737 377.94 382.625 377.955 385.574C377.97 388.524 377.219 391.436 375.775 394.029L352.866 435.186C351.331 437.942 349.07 440.236 346.329 441.819C343.588 443.401 340.471 444.212 337.317 444.163L290.219 443.425C287.252 443.378 284.355 442.573 281.808 441.085C279.261 439.597 277.15 437.478 275.679 434.931L256.189 401.173C254.719 398.626 253.939 395.738 253.924 392.789C253.909 389.839 254.66 386.927 256.104 384.334L279.013 343.177ZM294.257 345.637C293.205 345.621 292.165 345.891 291.25 346.419C290.336 346.947 289.582 347.712 289.07 348.632L266.157 389.783C265.676 390.648 265.426 391.619 265.432 392.603C265.437 393.587 265.699 394.55 266.19 395.399L285.68 429.157C286.17 430.007 286.873 430.715 287.722 431.212C288.571 431.709 289.538 431.978 290.527 431.994L337.621 432.726C338.674 432.743 339.714 432.472 340.628 431.944C341.543 431.416 342.297 430.651 342.809 429.731L365.722 388.58C366.203 387.715 366.453 386.744 366.447 385.76C366.441 384.776 366.18 383.813 365.689 382.964L346.198 349.206C345.709 348.356 345.005 347.648 344.156 347.151C343.307 346.655 342.341 346.385 341.351 346.369L294.257 345.637Z" fill="white"/>
<path fill-rule="evenodd" clip-rule="evenodd" d="M597.095 284.423C598.63 281.667 600.89 279.373 603.631 277.791C606.372 276.208 609.489 275.397 612.643 275.446L659.741 276.185C662.709 276.231 665.606 277.037 668.153 278.524C670.7 280.012 672.811 282.131 674.281 284.678L693.772 318.436C695.242 320.983 696.022 323.871 696.037 326.82C696.052 329.77 695.301 332.682 693.857 335.275L670.948 376.432C669.413 379.188 667.152 381.482 664.411 383.065C661.67 384.647 658.553 385.458 655.399 385.409L608.302 384.671C605.334 384.624 602.437 383.819 599.89 382.331C597.343 380.843 595.232 378.724 593.761 376.177L574.271 342.419C572.801 339.872 572.021 336.984 572.006 334.035C571.991 331.085 572.742 328.173 574.186 325.58L597.095 284.423ZM612.339 286.883C611.287 286.867 610.247 287.137 609.332 287.665C608.418 288.193 607.664 288.958 607.152 289.878L584.239 331.029C583.758 331.894 583.508 332.865 583.514 333.849C583.52 334.833 583.781 335.796 584.272 336.645L603.762 370.403C604.252 371.253 604.955 371.961 605.804 372.458C606.653 372.955 607.62 373.224 608.609 373.24L655.703 373.972C656.756 373.989 657.796 373.718 658.71 373.19C659.625 372.662 660.379 371.897 660.891 370.977L683.804 329.826C684.285 328.961 684.535 327.99 684.529 327.006C684.523 326.022 684.262 325.059 683.771 324.21L664.28 290.452C663.791 289.602 663.087 288.894 662.238 288.397C661.389 287.901 660.423 287.631 659.433 287.615L612.339 286.883Z" fill="white"/>
<path fill-rule="evenodd" clip-rule="evenodd" d="M617.355 446.503C618.89 443.747 621.15 441.453 623.891 439.871C626.632 438.288 629.749 437.477 632.903 437.526L680.001 438.265C682.969 438.311 685.866 439.117 688.413 440.604C690.96 442.092 693.071 444.211 694.541 446.758L714.032 480.516C715.502 483.063 716.282 485.951 716.297 488.9C716.312 491.85 715.561 494.762 714.117 497.355L691.208 538.512C689.673 541.268 687.412 543.562 684.671 545.145C681.93 546.727 678.813 547.538 675.659 547.489L628.562 546.751C625.594 546.704 622.697 545.899 620.15 544.411C617.603 542.923 615.492 540.804 614.021 538.257L594.531 504.499C593.061 501.952 592.281 499.064 592.266 496.115C592.251 493.165 593.002 490.253 594.446 487.66L617.355 446.503ZM632.599 448.963C631.547 448.947 630.507 449.217 629.592 449.745C628.678 450.273 627.924 451.038 627.412 451.958L604.499 493.109C604.018 493.974 603.768 494.945 603.774 495.929C603.78 496.913 604.041 497.876 604.532 498.725L624.022 532.483C624.512 533.333 625.215 534.041 626.064 534.538C626.913 535.035 627.88 535.304 628.869 535.32L675.963 536.052C677.016 536.069 678.056 535.798 678.97 535.27C679.885 534.742 680.639 533.977 681.151 533.057L704.064 491.906C704.545 491.041 704.795 490.07 704.789 489.086C704.783 488.102 704.522 487.139 704.031 486.29L684.54 452.532C684.051 451.682 683.347 450.974 682.498 450.477C681.649 449.981 680.683 449.711 679.693 449.695L632.599 448.963Z" fill="white"/>
<path fill-rule="evenodd" clip-rule="evenodd" d="M224.311 193.253C225.846 190.497 228.106 188.203 230.847 186.621C233.588 185.038 236.705 184.227 239.859 184.276L286.957 185.015C289.925 185.061 292.822 185.867 295.369 187.354C297.916 188.842 300.027 190.961 301.497 193.508L320.988 227.266C322.458 229.813 323.238 232.701 323.253 235.65C323.268 238.6 322.517 241.512 321.073 244.105L298.163 285.262C296.629 288.018 294.368 290.312 291.627 291.895C288.886 293.477 285.769 294.288 282.615 294.239L235.517 293.501C232.55 293.454 229.653 292.649 227.106 291.161C224.559 289.673 222.448 287.554 220.977 285.007L201.487 251.249C200.017 248.702 199.237 245.814 199.222 242.865C199.207 239.915 199.958 237.003 201.402 234.41L224.311 193.253ZM239.555 195.713C238.503 195.696 237.463 195.967 236.548 196.495C235.634 197.023 234.88 197.788 234.368 198.708L211.455 239.859C210.974 240.724 210.724 241.695 210.73 242.679C210.735 243.663 210.997 244.626 211.488 245.475L230.978 279.233C231.468 280.083 232.171 280.791 233.02 281.288C233.869 281.785 234.836 282.054 235.825 282.07L282.919 282.802C283.972 282.819 285.012 282.548 285.926 282.02C286.841 281.492 287.595 280.727 288.107 279.807L311.02 238.656C311.501 237.791 311.751 236.82 311.745 235.836C311.739 234.852 311.478 233.889 310.987 233.04L291.496 199.282C291.007 198.432 290.303 197.724 289.454 197.227C288.605 196.73 287.639 196.461 286.649 196.445L239.555 195.713Z" fill="white"/>
<path fill-rule="evenodd" clip-rule="evenodd" d="M451.167 224.379C454.906 222.488 459.1 221.646 463.294 221.944C467.488 222.242 471.52 223.67 474.954 226.07L526.227 261.926C529.458 264.185 532.046 267.228 533.742 270.76C535.437 274.292 536.183 278.194 535.906 282.09L532.234 333.737C531.956 337.633 530.666 341.391 528.488 344.647C526.309 347.904 523.317 350.549 519.798 352.328L463.968 380.568C460.228 382.459 456.034 383.301 451.841 383.002C447.647 382.704 443.614 381.277 440.18 378.876L388.908 343.02C385.676 340.762 383.088 337.719 381.393 334.187C379.697 330.655 378.952 326.753 379.228 322.857L382.901 271.21C383.179 267.314 384.469 263.556 386.647 260.299C388.825 257.043 391.818 254.397 395.336 252.618L451.167 224.379ZM466.11 238.429C464.964 237.627 463.619 237.15 462.22 237.051C460.82 236.951 459.421 237.233 458.174 237.864L402.344 266.094C401.171 266.688 400.173 267.571 399.447 268.657C398.722 269.744 398.293 270.998 398.202 272.298L394.529 323.945C394.435 325.244 394.682 326.546 395.247 327.724C395.811 328.903 396.674 329.918 397.751 330.672L449.025 366.518C450.17 367.32 451.516 367.796 452.915 367.896C454.314 367.995 455.714 367.714 456.961 367.082L512.791 338.853C513.964 338.259 514.962 337.376 515.687 336.289C516.413 335.202 516.842 333.949 516.933 332.649L520.606 281.002C520.7 279.703 520.452 278.401 519.888 277.222C519.323 276.044 518.461 275.028 517.383 274.274L466.11 238.429Z" fill="white"/>
<path fill-rule="evenodd" clip-rule="evenodd" d="M550.102 470.83C552.556 473.209 554.323 476.218 555.21 479.53C556.098 482.843 556.072 486.332 555.136 489.619L541.157 538.7C540.277 541.792 538.621 544.598 536.35 546.847C534.079 549.095 531.269 550.709 528.192 551.534L487.398 562.465C484.321 563.289 481.08 563.296 477.989 562.484C474.898 561.673 472.061 560.071 469.752 557.832L433.105 522.317C430.651 519.938 428.885 516.929 427.997 513.617C427.11 510.304 427.135 506.815 428.071 503.528L442.05 454.447C442.931 451.355 444.587 448.549 446.858 446.3C449.129 444.052 451.939 442.438 455.016 441.613L495.809 430.682C498.887 429.858 502.127 429.851 505.218 430.663C508.309 431.474 511.146 433.076 513.455 435.315L550.102 470.83ZM543.253 486.093C543.565 484.997 543.574 483.833 543.278 482.727C542.982 481.622 542.392 480.618 541.573 479.825L504.934 444.307C504.164 443.561 503.217 443.027 502.186 442.758C501.155 442.488 500.074 442.491 499.048 442.767L458.254 453.698C457.227 453.972 456.29 454.509 455.531 455.259C454.773 456.008 454.22 456.943 453.926 457.975L439.955 507.054C439.642 508.15 439.633 509.314 439.929 510.42C440.225 511.525 440.815 512.529 441.634 513.322L478.273 548.84C479.044 549.586 479.99 550.12 481.022 550.389C482.053 550.659 483.134 550.656 484.16 550.38L524.953 539.449C525.98 539.175 526.918 538.638 527.676 537.888C528.434 537.139 528.987 536.204 529.281 535.172L543.253 486.093Z" fill="white"/>
<mask id="path-9-inside-1_3_3" fill="white">
<path fill-rule="evenodd" clip-rule="evenodd" d="M376.307 479.044C376.691 479.417 376.968 479.887 377.106 480.406C377.245 480.924 377.241 481.47 377.095 481.985L374.907 489.666C374.769 490.15 374.51 490.589 374.155 490.941C373.799 491.293 373.36 491.546 372.878 491.675L366.494 493.385C366.012 493.514 365.505 493.515 365.021 493.388C364.537 493.261 364.093 493.011 363.732 492.66L357.997 487.102C357.613 486.73 357.336 486.259 357.197 485.741C357.058 485.222 357.062 484.676 357.209 484.162L359.397 476.48C359.534 475.996 359.794 475.557 360.149 475.205C360.504 474.853 360.944 474.601 361.426 474.472L367.81 472.761C368.292 472.632 368.799 472.631 369.283 472.758C369.766 472.885 370.21 473.136 370.572 473.486L376.307 479.044ZM375.235 481.433C375.284 481.261 375.285 481.079 375.239 480.906C375.193 480.733 375.1 480.576 374.972 480.452L369.238 474.893C369.118 474.777 368.969 474.693 368.808 474.651C368.647 474.609 368.477 474.609 368.317 474.652L361.933 476.363C361.772 476.406 361.625 476.49 361.506 476.607C361.388 476.725 361.301 476.871 361.255 477.032L359.069 484.713C359.02 484.885 359.018 485.067 359.065 485.24C359.111 485.413 359.203 485.57 359.331 485.694L365.066 491.253C365.186 491.37 365.334 491.453 365.496 491.496C365.657 491.538 365.826 491.537 365.987 491.494L372.371 489.783C372.532 489.74 372.679 489.656 372.797 489.539C372.916 489.422 373.002 489.275 373.049 489.114L375.235 481.433Z"/>
</mask>
<path fill-rule="evenodd" clip-rule="evenodd" d="M376.307 479.044C376.691 479.417 376.968 479.887 377.106 480.406C377.245 480.924 377.241 481.47 377.095 481.985L374.907 489.666C374.769 490.15 374.51 490.589 374.155 490.941C373.799 491.293 373.36 491.546 372.878 491.675L366.494 493.385C366.012 493.514 365.505 493.515 365.021 493.388C364.537 493.261 364.093 493.011 363.732 492.66L357.997 487.102C357.613 486.73 357.336 486.259 357.197 485.741C357.058 485.222 357.062 484.676 357.209 484.162L359.397 476.48C359.534 475.996 359.794 475.557 360.149 475.205C360.504 474.853 360.944 474.601 361.426 474.472L367.81 472.761C368.292 472.632 368.799 472.631 369.283 472.758C369.766 472.885 370.21 473.136 370.572 473.486L376.307 479.044ZM375.235 481.433C375.284 481.261 375.285 481.079 375.239 480.906C375.193 480.733 375.1 480.576 374.972 480.452L369.238 474.893C369.118 474.777 368.969 474.693 368.808 474.651C368.647 474.609 368.477 474.609 368.317 474.652L361.933 476.363C361.772 476.406 361.625 476.49 361.506 476.607C361.388 476.725 361.301 476.871 361.255 477.032L359.069 484.713C359.02 484.885 359.018 485.067 359.065 485.24C359.111 485.413 359.203 485.57 359.331 485.694L365.066 491.253C365.186 491.37 365.334 491.453 365.496 491.496C365.657 491.538 365.826 491.537 365.987 491.494L372.371 489.783C372.532 489.74 372.679 489.656 372.797 489.539C372.916 489.422 373.002 489.275 373.049 489.114L375.235 481.433Z" fill="white"/>
<path d="M376.307 479.044L380.483 474.736L380.483 474.736L376.307 479.044ZM377.106 480.406L371.311 481.959L377.106 480.406ZM377.095 481.985L382.865 483.628L382.866 483.628L377.095 481.985ZM374.907 489.666L369.137 488.023L369.136 488.023L374.907 489.666ZM372.878 491.675L374.431 497.47L374.432 497.47L372.878 491.675ZM366.494 493.385L368.046 499.181L368.047 499.181L366.494 493.385ZM363.732 492.66L367.908 488.352L367.908 488.352L363.732 492.66ZM357.997 487.102L353.821 491.41L353.821 491.411L357.997 487.102ZM357.197 485.741L362.993 484.188L357.197 485.741ZM357.209 484.162L351.438 482.518L351.438 482.519L357.209 484.162ZM359.397 476.48L365.167 478.124L365.167 478.123L359.397 476.48ZM361.426 474.472L359.873 468.676L359.872 468.676L361.426 474.472ZM367.81 472.761L366.258 466.965L366.257 466.965L367.81 472.761ZM370.572 473.486L366.396 477.794L366.396 477.795L370.572 473.486ZM375.235 481.433L369.465 479.787L369.464 479.79L375.235 481.433ZM374.972 480.452L370.796 484.76L370.798 484.762L374.972 480.452ZM369.238 474.893L373.414 470.585L373.412 470.583L369.238 474.893ZM368.317 474.652L369.87 480.448L369.876 480.446L368.317 474.652ZM361.933 476.363L363.479 482.16L363.485 482.159L361.933 476.363ZM361.255 477.032L355.485 475.387L355.484 475.39L361.255 477.032ZM359.069 484.713L364.838 486.359L364.839 486.356L359.069 484.713ZM359.065 485.24L364.86 483.687L359.065 485.24ZM359.331 485.694L363.508 481.386L363.505 481.384L359.331 485.694ZM365.066 491.253L360.889 495.561L360.892 495.563L365.066 491.253ZM365.987 491.494L364.434 485.698L364.428 485.7L365.987 491.494ZM372.371 489.783L370.824 483.986L370.818 483.988L372.371 489.783ZM373.049 489.114L378.818 490.76L378.819 490.757L373.049 489.114ZM372.131 483.352C371.733 482.967 371.452 482.485 371.311 481.959L382.902 478.853C382.483 477.29 381.649 475.866 380.483 474.736L372.131 483.352ZM371.311 481.959C371.17 481.433 371.173 480.875 371.324 480.342L382.866 483.628C383.31 482.066 383.321 480.416 382.902 478.853L371.311 481.959ZM371.324 480.341L369.137 488.023L380.678 491.31L382.865 483.628L371.324 480.341ZM369.136 488.023C369.279 487.521 369.551 487.056 369.934 486.677L378.376 495.205C379.469 494.123 380.259 492.779 380.678 491.309L369.136 488.023ZM369.934 486.677C370.317 486.298 370.796 486.021 371.324 485.879L374.432 497.47C375.924 497.07 377.282 496.288 378.376 495.205L369.934 486.677ZM371.325 485.879L364.941 487.59L368.047 499.181L374.431 497.47L371.325 485.879ZM364.942 487.59C365.47 487.448 366.023 487.448 366.545 487.585L363.498 499.192C364.987 499.583 366.554 499.581 368.046 499.181L364.942 487.59ZM366.545 487.585C367.066 487.722 367.533 487.989 367.908 488.352L359.556 496.969C360.653 498.032 362.009 498.801 363.498 499.192L366.545 487.585ZM367.908 488.352L362.172 482.793L353.821 491.411L359.556 496.969L367.908 488.352ZM362.173 482.794C362.571 483.18 362.852 483.662 362.993 484.188L351.402 487.293C351.82 488.856 352.655 490.28 353.821 491.41L362.173 482.794ZM362.993 484.188C363.134 484.713 363.131 485.272 362.979 485.805L351.438 482.519C350.994 484.08 350.983 485.731 351.402 487.293L362.993 484.188ZM362.979 485.805L365.167 478.124L353.626 474.837L351.438 482.518L362.979 485.805ZM365.167 478.123C365.024 478.625 364.753 479.091 364.37 479.469L355.928 470.941C354.834 472.024 354.044 473.367 353.626 474.837L365.167 478.123ZM364.37 479.469C363.987 479.849 363.508 480.125 362.979 480.267L359.872 468.676C358.38 469.076 357.022 469.858 355.928 470.941L364.37 479.469ZM362.979 480.267L369.363 478.557L366.257 466.965L359.873 468.676L362.979 480.267ZM369.362 478.557C368.833 478.698 368.28 478.698 367.759 478.561L370.806 466.955C369.317 466.564 367.75 466.566 366.258 466.965L369.362 478.557ZM367.759 478.561C367.238 478.425 366.77 478.157 366.396 477.794L374.748 469.178C373.65 468.114 372.294 467.345 370.806 466.955L367.759 478.561ZM366.396 477.795L372.131 483.353L380.483 474.736L374.747 469.177L366.396 477.795ZM381.005 483.079C381.353 481.859 381.361 480.571 381.035 479.353L369.444 482.459C369.21 481.587 369.215 480.664 369.465 479.787L381.005 483.079ZM381.035 479.353C380.708 478.135 380.057 477.024 379.146 476.142L370.798 484.762C370.144 484.128 369.677 483.331 369.444 482.459L381.035 479.353ZM379.148 476.144L373.414 470.585L365.062 479.201L370.796 484.76L379.148 476.144ZM373.412 470.583C372.555 469.753 371.493 469.151 370.327 468.846L367.289 480.455C366.445 480.235 365.681 479.8 365.064 479.204L373.412 470.583ZM370.327 468.846C369.159 468.541 367.929 468.543 366.758 468.858L369.876 480.446C369.026 480.675 368.134 480.676 367.289 480.455L370.327 468.846ZM366.764 468.857L360.38 470.567L363.485 482.159L369.87 480.448L366.764 468.857ZM360.386 470.566C359.214 470.879 358.147 471.491 357.289 472.34L365.724 480.875C365.103 481.489 364.33 481.933 363.479 482.16L360.386 470.566ZM357.289 472.34C356.431 473.187 355.813 474.239 355.485 475.387L367.025 478.678C366.79 479.503 366.344 480.262 365.724 480.875L357.289 472.34ZM355.484 475.39L353.298 483.071L364.839 486.356L367.026 478.675L355.484 475.39ZM353.299 483.068C352.951 484.287 352.943 485.575 353.269 486.793L364.86 483.687C365.094 484.559 365.088 485.483 364.838 486.359L353.299 483.068ZM353.269 486.793C353.595 488.011 354.246 489.122 355.158 490.005L363.505 481.384C364.16 482.018 364.626 482.815 364.86 483.687L353.269 486.793ZM355.155 490.002L360.889 495.561L369.242 486.945L363.508 481.386L355.155 490.002ZM360.892 495.563C361.749 496.394 362.81 496.995 363.977 497.3L367.014 485.691C367.858 485.912 368.623 486.346 369.24 486.943L360.892 495.563ZM363.977 497.3C365.144 497.606 366.374 497.603 367.546 497.288L364.428 485.7C365.278 485.471 366.17 485.47 367.014 485.691L363.977 497.3ZM367.54 497.29L373.924 495.579L370.818 483.988L364.434 485.698L367.54 497.29ZM373.918 495.581C375.09 495.268 376.156 494.655 377.015 493.807L368.58 485.271C369.201 484.658 369.974 484.213 370.824 483.986L373.918 495.581ZM377.015 493.807C377.873 492.959 378.491 491.908 378.818 490.76L367.279 487.468C367.514 486.643 367.959 485.885 368.58 485.271L377.015 493.807ZM378.819 490.757L381.006 483.076L369.464 479.79L367.278 487.471L378.819 490.757Z" fill="white" mask="url(#path-9-inside-1_3_3)"/>
<path d="M268.753 465.585C269.103 465.491 269.47 465.491 269.821 465.583C269.825 465.584 269.83 465.585 269.835 465.586C270.18 465.68 270.497 465.86 270.755 466.11L268.753 465.585ZM268.752 465.585L269.078 466.796L269.121 466.956L264.494 468.196L264.451 468.036L268.752 465.585ZM272.059 477.923L272.059 477.923L272.059 477.923ZM267.799 480.533L267.798 480.53L267.799 480.533Z" fill="white" stroke="white" stroke-width="6"/>
<path d="M245.073 414.339C245.422 414.246 245.789 414.245 246.14 414.337C246.145 414.338 246.149 414.34 246.154 414.341C246.499 414.434 246.816 414.614 247.074 414.865L245.073 414.339ZM245.071 414.34L245.397 415.551L245.44 415.71L240.813 416.95L240.77 416.79L245.071 414.34ZM248.379 426.677L248.379 426.677L248.379 426.677ZM244.119 429.288L244.118 429.284L244.119 429.288Z" fill="white" stroke="white" stroke-width="6"/>
<path d="M401.075 375.845C401.424 375.752 401.791 375.751 402.142 375.843C402.147 375.844 402.151 375.846 402.156 375.847C402.501 375.94 402.818 376.12 403.076 376.371L401.075 375.845ZM401.073 375.846L401.399 377.057L401.442 377.216L396.815 378.456L396.772 378.296L401.073 375.846ZM404.381 388.183L404.381 388.183L404.381 388.183ZM400.121 390.794L400.12 390.79L400.121 390.794Z" fill="white" stroke="white" stroke-width="6"/>
<path d="M392.971 440.677C393.32 440.584 393.687 440.583 394.038 440.675C394.043 440.676 394.047 440.678 394.052 440.679C394.397 440.772 394.714 440.952 394.972 441.203L392.971 440.677ZM392.969 440.678L393.295 441.889L393.338 442.048L388.711 443.288L388.668 443.128L392.969 440.678ZM396.277 453.015L396.277 453.015L396.277 453.015ZM392.017 455.626L392.016 455.622L392.017 455.626Z" fill="white" stroke="white" stroke-width="6"/>
<path d="M559.103 308.987C559.452 308.894 559.819 308.893 560.17 308.985C560.175 308.986 560.179 308.988 560.184 308.989C560.529 309.082 560.846 309.262 561.104 309.513L559.103 308.987ZM559.101 308.988L559.427 310.199L559.47 310.358L554.843 311.598L554.8 311.438L559.101 308.988ZM562.409 321.325L562.409 321.325L562.409 321.325ZM558.149 323.936L558.148 323.932L558.149 323.936Z" fill="white" stroke="white" stroke-width="6"/>
<path d="M571.259 489.301C571.608 489.208 571.975 489.207 572.326 489.299C572.331 489.3 572.335 489.302 572.34 489.303C572.685 489.396 573.002 489.576 573.26 489.827L571.259 489.301ZM571.257 489.302L571.583 490.513L571.626 490.672L566.999 491.912L566.956 491.752L571.257 489.302ZM574.565 501.639L574.565 501.639L574.565 501.639ZM570.305 504.25L570.304 504.246L570.305 504.25Z" fill="white" stroke="white" stroke-width="6"/>
<path d="M354.477 588.575C354.826 588.482 355.193 588.481 355.544 588.573C355.549 588.574 355.553 588.576 355.558 588.577C355.903 588.67 356.22 588.85 356.478 589.101L354.477 588.575ZM354.475 588.576L354.801 589.787L354.844 589.946L350.217 591.186L350.174 591.026L354.475 588.576ZM357.783 600.913L357.783 600.913L357.783 600.913ZM353.523 603.524L353.522 603.52L353.523 603.524Z" fill="white" stroke="white" stroke-width="6"/>
<path d="M216.709 323.169C217.058 323.076 217.425 323.075 217.776 323.167C217.781 323.168 217.785 323.17 217.79 323.171C218.135 323.264 218.452 323.444 218.71 323.695L216.709 323.169ZM216.707 323.17L217.033 324.381L217.076 324.54L212.449 325.78L212.406 325.62L216.707 323.17ZM220.015 335.507L220.015 335.507L220.015 335.507ZM215.755 338.118L215.754 338.114L215.755 338.118Z" fill="white" stroke="white" stroke-width="6"/>
<path d="M336.243 294.805C336.592 294.712 336.959 294.711 337.31 294.803C337.315 294.804 337.319 294.806 337.324 294.807C337.669 294.9 337.986 295.08 338.244 295.331L336.243 294.805ZM336.241 294.806L336.567 296.017L336.61 296.176L331.983 297.416L331.94 297.256L336.241 294.806ZM339.549 307.143L339.549 307.143L339.549 307.143ZM335.289 309.754L335.288 309.75L335.289 309.754Z" fill="white" stroke="white" stroke-width="6"/>
<path d="M356.503 225.921C356.852 225.828 357.219 225.827 357.57 225.919C357.575 225.92 357.579 225.922 357.584 225.923C357.929 226.016 358.246 226.196 358.504 226.447L356.503 225.921ZM356.501 225.922L356.827 227.133L356.87 227.292L352.243 228.532L352.2 228.372L356.501 225.922ZM359.809 238.259L359.809 238.259L359.809 238.259ZM355.549 240.87L355.548 240.866L355.549 240.87Z" fill="white" stroke="white" stroke-width="6"/>
<path d="M125.539 294.805C125.888 294.712 126.255 294.711 126.606 294.803C126.611 294.804 126.615 294.806 126.62 294.807C126.965 294.9 127.282 295.08 127.54 295.331L125.539 294.805ZM125.537 294.806L125.863 296.017L125.906 296.176L121.279 297.416L121.236 297.256L125.537 294.806ZM128.845 307.143L128.845 307.143L128.845 307.143ZM124.585 309.754L124.584 309.75L124.585 309.754Z" fill="white" stroke="white" stroke-width="6"/>
<path d="M166.059 211.739C166.408 211.646 166.775 211.645 167.126 211.737C167.131 211.738 167.135 211.74 167.14 211.741C167.485 211.834 167.802 212.014 168.06 212.265L166.059 211.739ZM166.057 211.74L166.383 212.951L166.426 213.11L161.799 214.35L161.756 214.19L166.057 211.74ZM169.365 224.077L169.365 224.077L169.365 224.077ZM165.105 226.688L165.104 226.684L165.105 226.688Z" fill="white" stroke="white" stroke-width="6"/>
<path d="M524.661 375.845C525.01 375.752 525.377 375.751 525.728 375.843C525.733 375.844 525.737 375.846 525.742 375.847C526.087 375.94 526.404 376.12 526.662 376.371L524.661 375.845ZM524.659 375.846L524.985 377.057L525.028 377.216L520.401 378.456L520.358 378.296L524.659 375.846ZM527.967 388.183L527.967 388.183L527.967 388.183ZM523.707 390.794L523.706 390.79L523.707 390.794Z" fill="white" stroke="white" stroke-width="6"/>
<path d="M421.335 412.313C421.684 412.22 422.051 412.219 422.402 412.311C422.407 412.312 422.411 412.314 422.416 412.315C422.761 412.408 423.078 412.588 423.336 412.839L421.335 412.313ZM421.333 412.314L421.659 413.525L421.702 413.684L417.075 414.924L417.032 414.764L421.333 412.314ZM424.641 424.651L424.641 424.651L424.641 424.651ZM420.381 427.262L420.38 427.258L420.381 427.262Z" fill="white" stroke="white" stroke-width="6"/>
<path d="M559.103 248.207C559.452 248.114 559.819 248.113 560.17 248.205C560.175 248.206 560.179 248.208 560.184 248.209C560.529 248.302 560.846 248.482 561.104 248.733L559.103 248.207ZM559.101 248.208L559.427 249.419L559.47 249.578L554.843 250.818L554.8 250.658L559.101 248.208ZM562.409 260.545L562.409 260.545L562.409 260.545ZM558.149 263.156L558.148 263.152L558.149 263.156Z" fill="white" stroke="white" stroke-width="6"/>
<path d="M573.285 416.365C573.634 416.272 574.001 416.271 574.352 416.363C574.357 416.364 574.361 416.366 574.366 416.367C574.711 416.46 575.028 416.64 575.286 416.891L573.285 416.365ZM573.283 416.366L573.609 417.577L573.652 417.736L569.025 418.976L568.982 418.816L573.283 416.366ZM576.591 428.703L576.591 428.703L576.591 428.703ZM572.331 431.314L572.33 431.31L572.331 431.314Z" fill="white" stroke="white" stroke-width="6"/>
<path d="M577.337 560.211C577.686 560.118 578.053 560.117 578.404 560.209C578.409 560.21 578.413 560.212 578.418 560.213C578.763 560.306 579.08 560.486 579.338 560.737L577.337 560.211ZM577.335 560.212L577.661 561.423L577.704 561.582L573.077 562.822L573.034 562.662L577.335 560.212ZM580.643 572.549L580.643 572.549L580.643 572.549ZM576.383 575.16L576.382 575.156L576.383 575.16Z" fill="white" stroke="white" stroke-width="6"/>
<path d="M403.101 574.393C403.45 574.3 403.817 574.299 404.168 574.391C404.173 574.392 404.177 574.394 404.182 574.395C404.527 574.488 404.844 574.668 405.102 574.919L403.101 574.393ZM403.099 574.394L403.425 575.605L403.468 575.764L398.841 577.004L398.798 576.844L403.099 574.394ZM406.407 586.731L406.407 586.731L406.407 586.731ZM402.147 589.342L402.146 589.338L402.147 589.342Z" fill="white" stroke="white" stroke-width="6"/>
<path d="M392.971 521.717C393.32 521.624 393.687 521.623 394.038 521.715C394.043 521.716 394.047 521.718 394.052 521.719C394.397 521.812 394.714 521.992 394.972 522.243L392.971 521.717ZM392.969 521.718L393.295 522.929L393.338 523.088L388.711 524.328L388.668 524.168L392.969 521.718ZM396.277 534.055L396.277 534.055L396.277 534.055ZM392.017 536.666L392.016 536.662L392.017 536.666Z" fill="white" stroke="white" stroke-width="6"/>
<path d="M719.157 390.027C719.506 389.934 719.874 389.933 720.224 390.025C720.229 390.026 720.233 390.028 720.238 390.029C720.583 390.122 720.9 390.302 721.158 390.553L719.157 390.027ZM719.155 390.028L719.481 391.239L719.524 391.398L714.897 392.638L714.854 392.478L719.155 390.028ZM722.463 402.365L722.463 402.365L722.463 402.365ZM718.203 404.976L718.202 404.972L718.203 404.976Z" fill="white" stroke="white" stroke-width="6"/>
<path d="M723.209 266.441C723.558 266.348 723.925 266.347 724.276 266.439C724.281 266.44 724.285 266.442 724.29 266.443C724.635 266.536 724.952 266.716 725.21 266.967L723.209 266.441ZM723.207 266.442L723.533 267.653L723.576 267.812L718.949 269.052L718.906 268.892L723.207 266.442ZM726.515 278.779L726.515 278.779L726.515 278.779ZM722.255 281.39L722.254 281.386L722.255 281.39Z" fill="white" stroke="white" stroke-width="6"/>
<path d="M625.961 240.103C626.31 240.01 626.677 240.009 627.028 240.101C627.033 240.102 627.037 240.104 627.042 240.105C627.387 240.198 627.704 240.378 627.962 240.629L625.961 240.103ZM625.959 240.104L626.285 241.315L626.328 241.474L621.701 242.714L621.658 242.554L625.959 240.104ZM629.267 252.441L629.267 252.441L629.267 252.441ZM625.007 255.052L625.006 255.048L625.007 255.052Z" fill="white" stroke="white" stroke-width="6"/>
<path d="M660.403 404.209C660.752 404.116 661.119 404.115 661.47 404.207C661.475 404.208 661.479 404.21 661.484 404.211C661.829 404.304 662.146 404.484 662.404 404.735L660.403 404.209ZM660.401 404.21L660.727 405.421L660.77 405.58L656.143 406.82L656.1 406.66L660.401 404.21ZM663.709 416.547L663.709 416.547L663.709 416.547ZM659.449 419.158L659.448 419.154L659.449 419.158Z" fill="white" stroke="white" stroke-width="6"/>
<path d="M166.059 560.211C166.408 560.118 166.775 560.117 167.126 560.209C167.131 560.21 167.135 560.212 167.14 560.213C167.485 560.306 167.802 560.486 168.06 560.737L166.059 560.211ZM166.057 560.212L166.383 561.423L166.426 561.582L161.799 562.822L161.756 562.662L166.057 560.212ZM169.365 572.549L169.365 572.549L169.365 572.549ZM165.105 575.16L165.104 575.156L165.105 575.16Z" fill="white" stroke="white" stroke-width="6"/>
<path d="M200.501 511.587C200.85 511.494 201.217 511.493 201.568 511.585C201.573 511.586 201.577 511.588 201.582 511.589C201.927 511.682 202.244 511.862 202.502 512.113L200.501 511.587ZM200.499 511.588L200.825 512.799L200.868 512.958L196.241 514.198L196.198 514.038L200.499 511.588ZM203.807 523.925L203.807 523.925L203.807 523.925ZM199.547 526.536L199.546 526.532L199.547 526.536Z" fill="white" stroke="white" stroke-width="6"/>
<path d="M163.141 424.676L131.472 406.948L99.8021 424.676L110.359 430.585M163.141 424.676L152.585 430.585M163.141 424.676C165.298 425.762 166.66 427.983 166.66 430.412V449.493M110.359 430.585L131.472 442.403L152.585 430.585M110.359 430.585V451.858L131.472 463.676L152.585 451.858V430.585" stroke="white" stroke-width="4" stroke-linecap="round" stroke-linejoin="round"/>
<g clip-path="url(#clip0_3_3)">
<path d="M301.275 553.492L287.588 563.187V553.492L273.305 563.609L272.113 545.159H260.211L257.83 586.819H304.428L301.275 553.492Z" fill="white"/>
</g>
<path d="M296.278 409.514C295.418 409.453 294.604 409.129 293.915 408.571C293.664 408.369 293.25 407.925 293.059 407.658C292.727 407.196 292.473 406.588 292.357 405.993L292.304 405.713V398.943V392.174H301.413H310.522V394.476C310.522 397.011 310.524 396.879 310.688 397.231C310.891 397.665 311.334 398.043 311.808 398.189C311.949 398.233 312.164 398.233 316.613 398.233H321.269L321.476 398.164C321.987 397.99 322.442 397.528 322.616 397.004L322.677 396.83V394.502V392.175H331.787H340.896V398.994V405.814L340.839 406.066C340.706 406.647 340.507 407.12 340.209 407.563C339.865 408.073 339.466 408.473 338.955 408.817C338.313 409.249 337.695 409.457 336.874 409.516C336.46 409.556 296.728 409.556 296.289 409.514H296.278ZM313.118 393.906V392.175H316.594H320.07V393.906V395.638H316.594H313.118V393.906ZM292.295 384.087C292.295 378.144 292.295 378.553 292.437 377.995C292.652 377.147 293.244 376.277 293.994 375.699C294.527 375.288 295.062 375.04 295.735 374.89L296.039 374.821H301.115H306.189V372.406V369.991L306.246 369.788C306.509 368.859 307.284 368.126 308.209 367.927C308.411 367.882 308.773 367.882 316.615 367.882H324.81L325.053 367.951C326.109 368.243 326.851 369.092 326.981 370.155C326.981 370.288 327.022 371.212 327.022 372.596V374.823H331.927C335.315 374.823 336.913 374.823 337.091 374.864C337.992 374.961 338.848 375.365 339.527 376.015C340.233 376.691 340.636 377.402 340.829 378.313L340.886 378.589V384.091V389.593H316.579H292.272V384.116L292.295 384.087ZM323.533 373.064V371.319H316.594H309.655V373.064V374.808H316.594H323.533V373.064Z" fill="white"/>
<g clip-path="url(#clip1_3_3)">
<path fill-rule="evenodd" clip-rule="evenodd" d="M439.669 269.18H481.714C482.7 269.18 483.502 269.987 483.502 270.974C483.502 271.96 482.695 272.768 481.714 272.768H439.669C438.682 272.768 437.88 271.96 437.88 270.974C437.875 269.987 438.682 269.18 439.669 269.18ZM491.379 291.957V294.12C491.4 294.326 491.411 294.531 491.411 294.737C491.411 298.367 488.019 301.311 483.835 301.311C479.651 301.311 476.258 298.367 476.258 294.737C476.258 294.584 476.264 294.426 476.274 294.273H475.973C475.984 294.426 475.989 294.579 475.989 294.737C475.989 298.367 472.597 301.311 468.413 301.311C464.229 301.311 460.836 298.367 460.836 294.737C460.836 294.584 460.842 294.426 460.852 294.273H460.551C460.562 294.426 460.567 294.579 460.567 294.737C460.567 298.367 457.175 301.311 452.991 301.311C448.807 301.311 445.414 298.367 445.414 294.737C445.414 294.584 445.42 294.426 445.43 294.273H445.24C445.251 294.426 445.256 294.579 445.256 294.737C445.256 298.367 441.864 301.311 437.68 301.311C433.496 301.311 430.103 298.367 430.103 294.737C430.103 294.558 430.114 294.384 430.13 294.21V291.957H491.379ZM437.701 274.688H483.94L489.833 287.272H431.591L437.701 274.688ZM430.605 326.167H436.999V305.959C437.105 305.965 437.21 305.97 437.316 305.97H437.342H437.463H437.485H437.5H437.585H437.601H437.675V305.986H437.68V305.97C440.571 305.97 443.246 305.047 445.33 303.517L445.346 303.527L445.362 303.538L445.378 303.548L445.393 303.559L445.409 303.569L445.425 303.58L445.43 303.585L445.441 303.59L445.457 303.601L445.473 303.611L445.488 303.622H445.494L445.546 303.659L445.562 303.67L445.567 303.675L445.594 303.691L445.61 303.701L445.626 303.712L445.631 303.717L445.641 303.722L445.657 303.733L445.673 303.743L445.689 303.754L445.699 303.786L445.715 303.796L445.726 303.807L445.742 303.817L445.757 303.828L445.773 303.838L445.789 303.849L445.805 303.859L445.821 303.87H445.826L445.947 303.949L445.963 303.96L445.979 303.97L446.074 304.034L446.09 304.044L446.206 304.113L446.227 304.118L446.243 304.129L446.259 304.139L446.274 304.15L446.29 304.16L446.306 304.171L446.322 304.181L446.338 304.192V317.435H474.501V304.493C474.955 304.255 475.398 303.986 475.815 303.696L475.826 303.685H475.831L475.915 303.627L475.921 303.622L475.947 303.606L475.973 303.59L476.016 303.559H476.021L476.026 303.553L476.116 303.49C478.21 305.047 480.906 305.986 483.824 305.986V306.002H483.829V305.986H483.845V326.177H490.24C491.226 326.177 492.034 327.939 492.034 330.097C492.034 332.255 491.226 334.017 490.24 334.017H430.605C429.623 334.017 428.816 332.255 428.816 330.097C428.816 327.934 429.623 326.167 430.605 326.167Z" fill="white"/>
</g>
<g clip-path="url(#clip2_3_3)">
<path fill-rule="evenodd" clip-rule="evenodd" d="M481.48 516.83L480.94 503.23L487.057 502.985C489.67 503.345 492.315 504.652 494.974 506.18L499.725 505.991C501.881 506.037 503.095 508.17 501.059 509.684C499.443 510.972 497.241 510.99 494.979 510.875C493.423 510.861 493.437 512.952 495.057 512.892C495.621 512.915 496.23 512.758 496.761 512.735C499.572 512.62 501.867 511.992 503.196 509.712L503.843 508.022L510.772 504.236C514.262 502.93 516.612 506.221 514.11 508.899C509.138 512.828 504.323 516.41 499.051 519.097C495.247 521.622 491.341 521.701 487.352 519.563L481.48 516.83ZM478.212 496.107H520.638C520.952 496.107 521.21 496.37 521.21 496.679V499.177C521.21 499.486 520.952 499.749 520.638 499.749H478.212C477.898 499.749 477.639 499.491 477.639 499.177V496.679C477.639 496.365 477.898 496.107 478.212 496.107ZM501.073 472.221C512.688 473.149 522.47 482.913 521.025 494.408H477.829C476.402 482.839 486.221 473.061 497.92 472.207V470.332H496.073C495.75 470.332 495.482 470.065 495.482 469.742V467.627C495.482 467.304 495.745 467.036 496.073 467.036H502.869C503.192 467.036 503.46 467.304 503.46 467.627V469.742C503.46 470.065 503.192 470.332 502.869 470.332H501.073V472.221ZM464.482 502.764L479.047 501.997L479.694 518.271L465.128 519.032L464.482 502.764Z" fill="white"/>
</g>
<path d="M654.887 314.418L645.868 323.437L645.892 323.516L652.741 348.727C652.858 349.278 652.844 349.849 652.699 350.393C652.555 350.937 652.284 351.44 651.908 351.86L649.648 354.121C649.501 354.291 649.315 354.422 649.104 354.502C648.894 354.581 648.667 354.606 648.445 354.575C648.222 354.543 648.011 354.456 647.831 354.322C647.651 354.187 647.508 354.009 647.415 353.805L638.151 337.037L635.212 334.094L627.439 341.866C626.548 342.661 625.553 343.33 624.48 343.855L626.216 349.564C626.348 350.108 626.345 350.676 626.208 351.219C626.072 351.762 625.805 352.264 625.431 352.68L624.741 353.375C624.388 353.725 623.912 353.921 623.415 353.921C622.918 353.921 622.442 353.725 622.089 353.375L617.986 349.276L617.915 349.197L614.806 346.096L614.727 346.017L610.632 341.917C610.282 341.565 610.086 341.088 610.086 340.592C610.086 340.095 610.282 339.619 610.632 339.266L611.326 338.572C611.744 338.199 612.246 337.934 612.789 337.799C613.332 337.663 613.9 337.662 614.443 337.795L620.152 339.523C620.677 338.45 621.346 337.455 622.141 336.564L629.913 328.791L626.97 325.856L610.202 316.592C609.997 316.499 609.82 316.356 609.685 316.176C609.55 315.996 609.463 315.785 609.432 315.562C609.4 315.34 609.426 315.113 609.505 314.902C609.584 314.692 609.715 314.505 609.886 314.359L612.147 312.098C612.567 311.723 613.07 311.453 613.614 311.308C614.158 311.163 614.729 311.149 615.28 311.266L640.49 318.115L640.569 318.139L649.588 309.12C651.048 307.652 655.984 305.095 657.452 306.555C658.911 308.023 656.351 312.955 654.887 314.418Z" fill="white"/>
<path d="M681.941 492.323C681.941 497.666 680.356 502.889 677.388 507.332C674.419 511.774 670.2 515.237 665.264 517.281C660.328 519.326 654.896 519.861 649.656 518.819C644.416 517.776 639.602 515.203 635.824 511.425C632.046 507.647 629.473 502.834 628.431 497.594C627.388 492.353 627.923 486.922 629.968 481.985C632.013 477.049 635.475 472.83 639.918 469.862C644.36 466.893 649.583 465.309 654.926 465.309C658.474 465.309 661.987 466.008 665.264 467.365C668.542 468.723 671.52 470.713 674.028 473.221C676.537 475.73 678.527 478.708 679.884 481.985C681.242 485.263 681.941 488.776 681.941 492.323ZM669.428 479.043C669.427 478.756 669.313 478.482 669.11 478.279C668.908 478.076 668.633 477.962 668.346 477.961H641.595C641.309 477.963 641.035 478.078 640.833 478.28C640.631 478.483 640.517 478.757 640.516 479.043V498.025C640.516 506.01 654.97 510.507 654.97 510.507C654.97 510.507 669.428 506.01 669.428 498.025V479.043ZM660.498 495.875C660.492 496.572 660.305 497.254 659.954 497.856C659.603 498.457 659.102 498.957 658.499 499.305C657.817 499.733 657.063 500.034 656.274 500.192V501.761C656.274 502.12 656.132 502.464 655.878 502.717C655.625 502.97 655.281 503.113 654.923 503.113C654.564 503.113 654.221 502.97 653.967 502.717C653.714 502.464 653.571 502.12 653.571 501.761V500.205L653.459 500.188C652.973 500.095 652.498 499.95 652.043 499.755C651.366 499.475 650.766 499.034 650.296 498.472C650.068 498.2 649.956 497.85 649.984 497.496C650.012 497.142 650.179 496.814 650.447 496.581C650.715 496.349 651.064 496.232 651.419 496.255C651.773 496.278 652.104 496.44 652.34 496.705C652.529 496.939 652.771 497.125 653.046 497.247C653.328 497.37 653.622 497.464 653.923 497.527C654.233 497.587 654.546 497.624 654.861 497.639C655.625 497.64 656.374 497.433 657.028 497.039C657.711 496.595 657.796 496.186 657.796 495.875C657.792 495.549 657.673 495.234 657.458 494.988C657.246 494.747 656.995 494.544 656.714 494.388C656.43 494.242 656.129 494.134 655.817 494.067C655.529 494.007 655.237 493.977 654.943 493.978C654.492 493.979 654.041 493.943 653.595 493.869C652.998 493.77 652.419 493.584 651.876 493.316C651.25 493.003 650.699 492.56 650.258 492.016C649.652 491.286 649.314 490.369 649.303 489.419C649.318 488.697 649.519 487.99 649.886 487.368C650.254 486.746 650.776 486.229 651.401 485.867C652.068 485.457 652.803 485.17 653.571 485.021V483.506C653.571 483.148 653.714 482.804 653.967 482.551C654.221 482.297 654.564 482.155 654.923 482.155C655.281 482.155 655.625 482.297 655.878 482.551C656.132 482.804 656.274 483.148 656.274 483.506V485.062L656.291 485.066L656.38 485.086C656.874 485.199 657.356 485.364 657.816 485.577C658.389 485.835 658.912 486.194 659.359 486.635C659.608 486.889 659.747 487.232 659.745 487.588C659.743 487.944 659.601 488.285 659.349 488.536C659.097 488.788 658.756 488.93 658.4 488.932C658.044 488.934 657.702 488.795 657.448 488.546C657.233 488.335 656.982 488.164 656.707 488.041C656.419 487.905 656.117 487.799 655.806 487.724L655.718 487.707C655.471 487.642 655.218 487.6 654.964 487.58C654.218 487.575 653.484 487.772 652.841 488.15C652.602 488.268 652.399 488.447 652.252 488.67C652.105 488.892 652.02 489.15 652.005 489.416C652.019 489.744 652.142 490.059 652.353 490.31C652.554 490.556 652.804 490.757 653.087 490.9C653.388 491.048 653.708 491.152 654.039 491.207C654.338 491.256 654.64 491.278 654.943 491.276C655.429 491.275 655.914 491.325 656.39 491.426C656.941 491.546 657.473 491.739 657.973 491.999C658.548 492.308 659.064 492.717 659.495 493.207C660.141 493.946 660.497 494.894 660.498 495.875Z" fill="white"/>
<path d="M284.928 232.881C285.249 232.881 285.568 232.818 285.865 232.695C286.162 232.572 286.432 232.391 286.659 232.164C286.886 231.937 287.067 231.667 287.19 231.37C287.313 231.073 287.376 230.754 287.376 230.433V223.089C287.376 222.575 287.215 222.074 286.914 221.657C286.614 221.241 286.19 220.929 285.702 220.767L263.67 213.423C263.167 213.256 262.623 213.256 262.12 213.423L240.088 220.767C239.6 220.929 239.176 221.241 238.876 221.657C238.576 222.074 238.414 222.575 238.414 223.089V230.433C238.414 230.754 238.477 231.073 238.6 231.37C238.723 231.667 238.904 231.937 239.131 232.164C239.358 232.391 239.628 232.572 239.925 232.695C240.222 232.818 240.541 232.881 240.862 232.881H243.31V250.469C241.883 250.971 240.645 251.904 239.769 253.138C238.892 254.373 238.419 255.848 238.414 257.362V262.258C238.414 262.579 238.477 262.898 238.6 263.195C238.723 263.492 238.904 263.762 239.131 263.989C239.358 264.216 239.628 264.397 239.925 264.52C240.222 264.643 240.541 264.706 240.862 264.706H284.928C285.249 264.706 285.568 264.643 285.865 264.52C286.162 264.397 286.432 264.216 286.659 263.989C286.886 263.762 287.067 263.492 287.19 263.195C287.313 262.898 287.376 262.579 287.376 262.258V257.362C287.371 255.848 286.898 254.373 286.021 253.138C285.145 251.904 283.908 250.971 282.48 250.469V232.881H284.928ZM282.48 259.81H243.31V257.362C243.311 256.713 243.569 256.09 244.028 255.631C244.487 255.172 245.109 254.914 245.758 254.914H280.032C280.681 254.914 281.303 255.172 281.762 255.631C282.221 256.09 282.479 256.713 282.48 257.362V259.81ZM248.207 250.017V232.881H253.103V250.017H248.207ZM257.999 250.017V232.881H267.791V250.017H257.999ZM272.687 250.017V232.881H277.584V250.017H272.687ZM243.31 227.985V224.853L262.895 218.324L282.48 224.853V227.985H243.31Z" fill="white"/>
<g filter="url(#filter0_f_3_3)">
<circle cx="452.493" cy="352.505" r="118.859" fill="#EC0EAE"/>
</g>
<defs>
<filter id="filter0_f_3_3" x="41.6339" y="-58.3538" width="821.717" height="821.717" filterUnits="userSpaceOnUse" color-interpolation-filters="sRGB">
<feFlood flood-opacity="0" result="BackgroundImageFix"/>
<feBlend mode="normal" in="SourceGraphic" in2="BackgroundImageFix" result="shape"/>
<feGaussianBlur stdDeviation="146" result="effect1_foregroundBlur_3_3"/>
</filter>
<clipPath id="clip0_3_3">
<rect width="46.598" height="46.598" fill="white" transform="translate(257.83 542.69)"/>
</clipPath>
<clipPath id="clip1_3_3">
<rect width="64.832" height="64.832" fill="white" transform="translate(428.014 269.18)"/>
</clipPath>
<clipPath id="clip2_3_3">
<rect width="56.728" height="56.728" fill="white" transform="translate(464.482 465.702)"/>
</clipPath>
</defs>
</svg>
