<svg width="113" height="113" viewBox="0 0 113 113" fill="none" xmlns="http://www.w3.org/2000/svg">
<path d="M103.585 56.9936C103.585 66.3062 100.824 75.4097 95.65 83.1528C90.4762 90.896 83.1225 96.931 74.5188 100.495C65.9151 104.059 56.4478 104.991 47.3141 103.174C38.1805 101.357 29.7907 96.873 23.2057 90.288C16.6207 83.703 12.1362 75.3132 10.3194 66.1795C8.50263 57.0459 9.43507 47.5786 12.9989 38.9749C16.5626 30.3712 22.5977 23.0174 30.3408 17.8436C38.084 12.6698 47.1874 9.90833 56.5 9.90833C62.6833 9.90833 68.8061 11.1262 74.5188 13.4925C80.2314 15.8587 85.4221 19.327 89.7944 23.6993C94.1666 28.0716 97.6349 33.2622 100.001 38.9749C102.367 44.6875 103.585 50.8103 103.585 56.9936ZM81.7763 33.8465C81.7748 33.347 81.5756 32.8683 81.2224 32.5151C80.8692 32.1619 80.3905 31.9627 79.891 31.9612H33.2636C32.7651 31.9643 32.288 32.1641 31.9361 32.5172C31.5841 32.8702 31.3858 33.348 31.3843 33.8465V66.9317C31.3843 80.8485 56.5773 88.6872 56.5773 88.6872C56.5773 88.6872 81.7763 80.8485 81.7763 66.9317V33.8465ZM66.2121 63.1848C66.2017 64.3983 65.8747 65.5881 65.2635 66.6364C64.6522 67.6847 63.7779 68.5552 62.7269 69.162C61.5392 69.9091 60.2251 70.4332 58.8492 70.7083V73.4441C58.8492 74.0687 58.6011 74.6677 58.1594 75.1094C57.7177 75.5511 57.1187 75.7992 56.4941 75.7992C55.8694 75.7992 55.2704 75.5511 54.8287 75.1094C54.387 74.6677 54.1389 74.0687 54.1389 73.4441V70.7321L53.9426 70.7023C53.0953 70.5396 52.2678 70.2863 51.4745 69.947C50.294 69.4581 49.2493 68.6909 48.4294 67.7108C48.0318 67.237 47.8366 66.6257 47.8859 66.0091C47.9353 65.3925 48.2252 64.8201 48.6931 64.4155C49.1609 64.0109 49.7692 63.8066 50.3865 63.8468C51.0037 63.8869 51.5804 64.1683 51.9919 64.6301C52.3213 65.0387 52.7433 65.3628 53.223 65.5757C53.7147 65.7895 54.2268 65.9529 54.7515 66.0634C55.2913 66.1677 55.8379 66.2333 56.387 66.2596C57.7177 66.261 59.0235 65.8991 60.1636 65.2129C61.3531 64.4397 61.5017 63.7261 61.5017 63.1848C61.4958 62.6158 61.287 62.0675 60.913 61.6385C60.5439 61.218 60.1053 60.8639 59.6164 60.5918C59.1217 60.3378 58.5959 60.1499 58.0523 60.0327C57.5516 59.9277 57.0413 59.8759 56.5298 59.8781C55.7427 59.8803 54.9569 59.8166 54.1805 59.6878C53.1397 59.5149 52.1298 59.1903 51.1831 58.7243C50.093 58.178 49.1319 57.4055 48.364 56.4584C47.3066 55.1852 46.7187 53.5874 46.6987 51.9324C46.7248 50.6731 47.0751 49.4418 47.7158 48.3573C48.3565 47.2728 49.266 46.3718 50.3564 45.7412C51.5181 45.0258 52.7995 44.5262 54.1389 44.2663V41.6256C54.1389 41.001 54.387 40.402 54.8287 39.9603C55.2704 39.5186 55.8694 39.2705 56.4941 39.2705C57.1187 39.2705 57.7177 39.5186 58.1594 39.9603C58.6011 40.402 58.8492 41.001 58.8492 41.6256V44.3376L58.879 44.3436L59.0336 44.3793C59.8958 44.5766 60.735 44.8637 61.5374 45.2357C62.536 45.6855 63.4464 46.3098 64.2256 47.0794C64.66 47.5226 64.9018 48.1192 64.8987 48.7397C64.8956 49.3602 64.6477 49.9544 64.2089 50.3932C63.7701 50.8319 63.1759 51.0798 62.5555 51.083C61.935 51.0861 61.3383 50.8442 60.8951 50.4099C60.5203 50.0426 60.0833 49.7446 59.6045 49.5297C59.1012 49.2927 58.5752 49.1074 58.0344 48.9766L57.8798 48.9468C57.4491 48.8344 57.0092 48.7608 56.5654 48.7268C55.2653 48.7176 53.9869 49.0608 52.8662 49.72C52.4492 49.9253 52.0945 50.2379 51.8384 50.6257C51.5823 51.0135 51.4341 51.4624 51.4091 51.9265C51.4332 52.4987 51.6466 53.0468 52.0157 53.4847C52.3657 53.9129 52.8012 54.2634 53.2944 54.5136C53.8188 54.7711 54.3777 54.9513 54.9537 55.0489C55.4748 55.1325 56.002 55.1723 56.5298 55.1678C57.3772 55.1658 58.2225 55.2535 59.0514 55.4295C60.0113 55.6396 60.9392 55.9755 61.811 56.4286C62.8135 56.9669 63.7117 57.6799 64.4635 58.534C65.5893 59.822 66.2104 61.4742 66.2121 63.1848Z" fill="url(#paint0_linear_25_2072)"/>
<defs>
<linearGradient id="paint0_linear_25_2072" x1="20.5" y1="10" x2="104" y2="104" gradientUnits="userSpaceOnUse">
<stop stop-color="#80019C"/>
<stop offset="1" stop-color="#9B018C"/>
</linearGradient>
</defs>
</svg>
