<svg width="359" height="350" viewBox="0 0 359 350" fill="none" xmlns="http://www.w3.org/2000/svg">
<rect x="0.15" y="0.15" width="358.7" height="349.7" rx="19.85" fill="white" stroke="black" stroke-width="0.3"/>
<path d="M271.67 175.961C271.67 194.092 266.294 211.815 256.221 226.89C246.148 241.966 231.831 253.715 215.081 260.654C198.33 267.592 179.898 269.407 162.116 265.87C144.334 262.333 127.999 253.602 115.179 240.782C102.359 227.962 93.6279 211.627 90.0908 193.845C86.5537 176.063 88.3691 157.631 95.3074 140.88C102.246 124.13 113.995 109.813 129.07 99.7398C144.146 89.6669 161.869 84.2905 180 84.2905C192.038 84.2905 203.959 86.6617 215.081 91.2685C226.203 95.8754 236.308 102.628 244.821 111.14C253.333 119.653 260.086 129.758 264.692 140.88C269.299 152.002 271.67 163.923 271.67 175.961ZM229.21 130.896C229.207 129.923 228.82 128.991 228.132 128.304C227.444 127.616 226.512 127.228 225.54 127.225H134.761C133.79 127.231 132.862 127.62 132.176 128.308C131.491 128.995 131.105 129.925 131.102 130.896V195.309C131.102 222.404 180.15 237.665 180.15 237.665C180.15 237.665 229.21 222.404 229.21 195.309V130.896ZM198.908 188.015C198.888 190.377 198.252 192.694 197.062 194.734C195.871 196.775 194.169 198.47 192.123 199.652C189.811 201.106 187.252 202.126 184.574 202.662V207.988C184.574 209.204 184.091 210.371 183.231 211.231C182.371 212.091 181.204 212.574 179.988 212.574C178.772 212.574 177.606 212.091 176.746 211.231C175.886 210.371 175.403 209.204 175.403 207.988V202.708L175.021 202.651C173.371 202.334 171.76 201.841 170.216 201.18C167.917 200.228 165.883 198.734 164.287 196.826C163.513 195.904 163.133 194.714 163.229 193.513C163.325 192.313 163.89 191.198 164.801 190.411C165.711 189.623 166.896 189.225 168.097 189.303C169.299 189.382 170.422 189.929 171.223 190.828C171.864 191.624 172.686 192.255 173.62 192.669C174.577 193.086 175.574 193.404 176.596 193.619C177.647 193.822 178.711 193.95 179.78 194.001C182.371 194.004 184.913 193.299 187.133 191.963C189.448 190.458 189.738 189.068 189.738 188.015C189.726 186.907 189.32 185.839 188.591 185.004C187.873 184.185 187.019 183.496 186.067 182.966C185.104 182.472 184.08 182.106 183.022 181.878C182.047 181.673 181.054 181.573 180.058 181.577C178.526 181.581 176.996 181.457 175.484 181.206C173.458 180.87 171.491 180.238 169.648 179.331C167.526 178.267 165.655 176.763 164.16 174.919C162.101 172.44 160.957 169.329 160.918 166.107C160.969 163.656 161.651 161.258 162.898 159.147C164.145 157.035 165.916 155.281 168.039 154.054C170.301 152.661 172.795 151.688 175.403 151.182V146.041C175.403 144.825 175.886 143.659 176.746 142.799C177.606 141.939 178.772 141.456 179.988 141.456C181.204 141.456 182.371 141.939 183.231 142.799C184.091 143.659 184.574 144.825 184.574 146.041V151.321L184.631 151.333L184.933 151.402C186.611 151.786 188.245 152.345 189.807 153.069C191.751 153.945 193.524 155.161 195.041 156.659C195.887 157.522 196.357 158.683 196.351 159.891C196.345 161.1 195.863 162.256 195.008 163.111C194.154 163.965 192.997 164.447 191.789 164.454C190.581 164.46 189.42 163.989 188.557 163.143C187.827 162.428 186.976 161.848 186.044 161.429C185.064 160.968 184.04 160.607 182.987 160.353L182.686 160.295C181.848 160.076 180.991 159.932 180.127 159.866C177.596 159.848 175.107 160.517 172.925 161.8C172.113 162.2 171.423 162.808 170.924 163.563C170.426 164.318 170.137 165.192 170.088 166.096C170.135 167.21 170.551 168.277 171.269 169.129C171.951 169.963 172.799 170.645 173.759 171.133C174.78 171.634 175.868 171.985 176.989 172.175C178.004 172.338 179.03 172.415 180.058 172.406C181.708 172.402 183.353 172.573 184.967 172.916C186.836 173.325 188.642 173.979 190.34 174.861C192.292 175.909 194.04 177.297 195.504 178.96C197.696 181.468 198.905 184.684 198.908 188.015Z" fill="url(#paint0_linear_148_67)"/>
<rect width="359" height="350" rx="20" fill="#5F01AB" fill-opacity="0.78"/>
<path d="M58.5737 154V196H67.2737V154H58.5737ZM93.4276 179.2V196H101.468V178.36C101.468 175.04 100.668 172.46 99.0676 170.62C97.4676 168.74 95.0276 167.8 91.7476 167.8C89.7876 167.8 88.1076 168.22 86.7076 169.06C85.3476 169.86 84.2476 171.04 83.4076 172.6V168.4H75.6076V196H83.4076V179.2C83.4076 178.04 83.6276 177.04 84.0676 176.2C84.5076 175.36 85.1476 174.72 85.9876 174.28C86.8276 173.8 87.7876 173.56 88.8676 173.56C90.4676 173.56 91.6276 174.04 92.3476 175C93.0676 175.96 93.4276 177.36 93.4276 179.2ZM110.503 186.46L106.723 191.32C107.763 192.32 108.923 193.26 110.203 194.14C111.523 194.98 112.983 195.66 114.583 196.18C116.223 196.7 118.023 196.96 119.983 196.96C123.143 196.96 125.623 196.2 127.423 194.68C129.223 193.12 130.123 190.96 130.123 188.2C130.123 186.52 129.743 185.16 128.983 184.12C128.223 183.08 127.203 182.22 125.923 181.54C124.683 180.82 123.323 180.18 121.843 179.62C120.643 179.1 119.563 178.66 118.603 178.3C117.683 177.94 116.963 177.54 116.443 177.1C115.963 176.62 115.723 176.08 115.723 175.48C115.723 174.8 115.963 174.3 116.443 173.98C116.963 173.62 117.663 173.44 118.543 173.44C119.863 173.44 121.203 173.78 122.563 174.46C123.963 175.14 125.163 176.02 126.163 177.1L129.583 172.3C128.703 171.42 127.683 170.66 126.523 170.02C125.363 169.34 124.103 168.8 122.743 168.4C121.383 168 119.923 167.8 118.363 167.8C116.523 167.8 114.843 168.1 113.323 168.7C111.843 169.26 110.663 170.12 109.783 171.28C108.903 172.4 108.463 173.78 108.463 175.42C108.463 177.14 108.843 178.56 109.603 179.68C110.403 180.76 111.403 181.64 112.603 182.32C113.803 182.96 115.043 183.52 116.323 184C117.683 184.44 118.803 184.86 119.683 185.26C120.563 185.66 121.223 186.12 121.663 186.64C122.143 187.12 122.383 187.72 122.383 188.44C122.383 189.24 122.103 189.88 121.543 190.36C120.983 190.8 120.183 191.02 119.143 191.02C118.343 191.02 117.483 190.86 116.563 190.54C115.683 190.22 114.743 189.74 113.743 189.1C112.743 188.42 111.663 187.54 110.503 186.46ZM143.53 185.2V168.4H135.49V186.04C135.49 189.32 136.29 191.9 137.89 193.78C139.53 195.66 141.99 196.6 145.27 196.6C147.23 196.6 148.89 196.2 150.25 195.4C151.61 194.56 152.73 193.36 153.61 191.8V196H161.35V168.4H153.61V185.2C153.61 186.36 153.37 187.36 152.89 188.2C152.45 189.04 151.81 189.7 150.97 190.18C150.17 190.62 149.21 190.84 148.09 190.84C146.49 190.84 145.33 190.36 144.61 189.4C143.89 188.4 143.53 187 143.53 185.2ZM176.626 168.4H169.006V196H176.626V168.4ZM184.726 176.5L188.266 169.9C187.706 169.18 186.966 168.64 186.046 168.28C185.166 167.92 184.226 167.74 183.226 167.74C181.786 167.74 180.386 168.26 179.026 169.3C177.666 170.3 176.566 171.66 175.726 173.38C174.886 175.06 174.466 177 174.466 179.2L176.626 181.36C176.626 180.04 176.786 178.92 177.106 178C177.466 177.04 177.986 176.3 178.666 175.78C179.346 175.26 180.166 175 181.126 175C181.926 175 182.586 175.14 183.106 175.42C183.666 175.66 184.206 176.02 184.726 176.5ZM197.905 187.42C197.905 186.62 198.085 185.96 198.445 185.44C198.805 184.88 199.365 184.46 200.125 184.18C200.885 183.86 201.865 183.7 203.065 183.7C204.545 183.7 205.945 183.9 207.265 184.3C208.625 184.7 209.845 185.3 210.925 186.1V182.5C210.525 182.02 209.865 181.52 208.945 181C208.025 180.48 206.885 180.04 205.525 179.68C204.205 179.32 202.665 179.14 200.905 179.14C197.465 179.14 194.805 179.92 192.925 181.48C191.045 183.04 190.105 185.16 190.105 187.84C190.105 189.72 190.545 191.32 191.425 192.64C192.345 193.92 193.545 194.9 195.025 195.58C196.505 196.26 198.105 196.6 199.825 196.6C201.505 196.6 203.105 196.3 204.625 195.7C206.185 195.1 207.445 194.2 208.405 193C209.405 191.8 209.905 190.32 209.905 188.56L208.945 184.96C208.945 186.28 208.645 187.42 208.045 188.38C207.445 189.3 206.665 190.02 205.705 190.54C204.745 191.02 203.665 191.26 202.465 191.26C201.625 191.26 200.845 191.12 200.125 190.84C199.445 190.52 198.905 190.08 198.505 189.52C198.105 188.92 197.905 188.22 197.905 187.42ZM194.905 176.2C195.305 175.92 195.925 175.58 196.765 175.18C197.605 174.78 198.605 174.44 199.765 174.16C200.925 173.88 202.145 173.74 203.425 173.74C204.265 173.74 205.025 173.82 205.705 173.98C206.385 174.14 206.965 174.4 207.445 174.76C207.965 175.12 208.345 175.58 208.585 176.14C208.825 176.66 208.945 177.3 208.945 178.06V196H216.445V176.44C216.445 174.56 215.925 172.98 214.885 171.7C213.845 170.38 212.405 169.38 210.565 168.7C208.725 168.02 206.625 167.68 204.265 167.68C201.705 167.68 199.385 168.04 197.305 168.76C195.225 169.44 193.465 170.16 192.025 170.92L194.905 176.2ZM241.494 179.2V196H249.534V178.36C249.534 175.04 248.734 172.46 247.134 170.62C245.534 168.74 243.094 167.8 239.814 167.8C237.854 167.8 236.174 168.22 234.774 169.06C233.414 169.86 232.314 171.04 231.474 172.6V168.4H223.674V196H231.474V179.2C231.474 178.04 231.694 177.04 232.134 176.2C232.574 175.36 233.214 174.72 234.054 174.28C234.894 173.8 235.854 173.56 236.934 173.56C238.534 173.56 239.694 174.04 240.414 175C241.134 175.96 241.494 177.36 241.494 179.2ZM263.07 182.2C263.07 180.64 263.43 179.26 264.15 178.06C264.87 176.86 265.83 175.92 267.03 175.24C268.27 174.52 269.63 174.16 271.11 174.16C272.23 174.16 273.35 174.34 274.47 174.7C275.59 175.06 276.61 175.58 277.53 176.26C278.49 176.9 279.21 177.66 279.69 178.54V170.56C278.73 169.72 277.47 169.06 275.91 168.58C274.39 168.06 272.61 167.8 270.57 167.8C267.65 167.8 265.01 168.4 262.65 169.6C260.33 170.8 258.49 172.48 257.13 174.64C255.81 176.8 255.15 179.32 255.15 182.2C255.15 185.04 255.81 187.56 257.13 189.76C258.49 191.92 260.33 193.6 262.65 194.8C265.01 196 267.65 196.6 270.57 196.6C272.61 196.6 274.39 196.36 275.91 195.88C277.47 195.36 278.73 194.66 279.69 193.78V185.8C279.21 186.68 278.51 187.46 277.59 188.14C276.71 188.78 275.71 189.3 274.59 189.7C273.47 190.06 272.31 190.24 271.11 190.24C269.63 190.24 268.27 189.9 267.03 189.22C265.83 188.54 264.87 187.6 264.15 186.4C263.43 185.2 263.07 183.8 263.07 182.2ZM299.565 196.6C302.885 196.6 305.725 195.96 308.085 194.68C310.485 193.36 312.405 191.4 313.845 188.8L307.065 186.7C306.265 188.02 305.245 189.02 304.005 189.7C302.805 190.34 301.345 190.66 299.625 190.66C298.105 190.66 296.805 190.32 295.725 189.64C294.645 188.96 293.825 187.98 293.265 186.7C292.745 185.42 292.485 183.86 292.485 182.02C292.525 180.1 292.805 178.5 293.325 177.22C293.885 175.9 294.665 174.92 295.665 174.28C296.705 173.6 297.985 173.26 299.505 173.26C300.745 173.26 301.825 173.54 302.745 174.1C303.665 174.66 304.365 175.42 304.845 176.38C305.365 177.34 305.625 178.5 305.625 179.86C305.625 180.14 305.545 180.5 305.385 180.94C305.265 181.34 305.125 181.66 304.965 181.9L307.065 179.14H289.125V183.94H313.845C313.885 183.7 313.905 183.38 313.905 182.98C313.945 182.58 313.965 182.2 313.965 181.84C313.965 178.88 313.405 176.36 312.285 174.28C311.165 172.16 309.525 170.56 307.365 169.48C305.245 168.36 302.665 167.8 299.625 167.8C296.585 167.8 293.945 168.4 291.705 169.6C289.465 170.76 287.725 172.42 286.485 174.58C285.285 176.7 284.685 179.24 284.685 182.2C284.685 185.12 285.285 187.66 286.485 189.82C287.725 191.94 289.465 193.6 291.705 194.8C293.945 196 296.565 196.6 299.565 196.6Z" fill="white"/>
<defs>
<linearGradient id="paint0_linear_148_67" x1="109.911" y1="84.469" x2="272.478" y2="267.478" gradientUnits="userSpaceOnUse">
<stop stop-color="#80019C"/>
<stop offset="1" stop-color="#9B018C"/>
</linearGradient>
</defs>
</svg>
