<svg width="23" height="32" viewBox="0 0 23 32" fill="none" xmlns="http://www.w3.org/2000/svg">
<path d="M2.78066 11.9344C2.77011 7.61019 2.81792 3.06238 7.19347 0.946677C10.8504 -0.821682 15.7878 -0.123479 18.1608 3.13269C19.3034 4.69996 19.8321 6.67363 19.7696 8.60793L19.7703 11.8142C21.3966 12.7761 22.5582 14.5261 22.632 16.5061C22.6728 19.7946 22.9287 23.1155 22.606 26.3661C22.3402 29.0464 19.9622 31.3182 17.1603 31.4222C13.1707 31.4714 9.16644 31.7914 5.19097 31.3969C2.50995 31.1304 0.238858 28.7532 0.134795 25.9505C0.0940142 22.6627 -0.161923 19.3418 0.160811 16.0906C0.329561 14.3911 1.34558 12.8569 2.78066 11.9344ZM5.67612 13.8469C4.24737 13.8996 3.00073 15.1329 2.94659 16.5764C2.90862 19.6772 2.90862 22.7794 2.94659 25.8809C3.00003 27.3118 4.23261 28.557 5.67612 28.6104C9.48073 28.6575 13.286 28.6575 17.0907 28.6104C18.5215 28.557 19.766 27.3251 19.8202 25.8809C19.8589 22.7794 19.8589 19.6772 19.8202 16.5764C19.7667 15.1456 18.5342 13.9004 17.0907 13.8469C13.286 13.7998 9.48073 13.7998 5.67612 13.8469ZM16.9859 11.033C17.0513 8.02855 17.0548 5.08386 14.6346 3.64597C12.2869 2.25027 8.87253 2.47316 7.03597 4.51152C6.04667 5.6084 5.57066 7.14543 5.59526 8.56012V11.0351H5.60651C9.39917 10.9873 13.1925 10.9866 16.9859 11.033Z" fill="#8112AC"/>
</svg>
