<svg width="73" height="73" viewBox="0 0 73 73" fill="none" xmlns="http://www.w3.org/2000/svg">
<path d="M66.9167 21.2916H51.7083V6.08329C51.7083 5.27659 51.3879 4.50293 50.8175 3.93251C50.247 3.36209 49.4734 3.04163 48.6667 3.04163H24.3333C23.5266 3.04163 22.753 3.36209 22.1826 3.93251C21.6121 4.50293 21.2917 5.27659 21.2917 6.08329V21.2916H6.08334C5.27664 21.2916 4.50298 21.6121 3.93256 22.1825C3.36213 22.7529 3.04167 23.5266 3.04167 24.3333V66.9166C3.04167 67.7233 3.36213 68.497 3.93256 69.0674C4.50298 69.6378 5.27664 69.9583 6.08334 69.9583H66.9167C67.7234 69.9583 68.497 69.6378 69.0675 69.0674C69.6379 68.497 69.9583 67.7233 69.9583 66.9166V24.3333C69.9583 23.5266 69.6379 22.7529 69.0675 22.1825C68.497 21.6121 67.7234 21.2916 66.9167 21.2916ZM9.125 27.375H21.2917V63.875H9.125V27.375ZM27.375 24.3333V9.12496H45.625V63.875H39.5417V57.7916C39.5417 56.9849 39.2212 56.2113 38.6508 55.6408C38.0804 55.0704 37.3067 54.75 36.5 54.75C35.6933 54.75 34.9196 55.0704 34.3492 55.6408C33.7788 56.2113 33.4583 56.9849 33.4583 57.7916V63.875H27.375V24.3333ZM63.875 63.875H51.7083V27.375H63.875V63.875ZM39.5417 21.2916H33.4583V15.2083H39.5417V21.2916ZM39.5417 33.4583H33.4583V27.375H39.5417V33.4583ZM39.5417 45.625H33.4583V39.5416H39.5417V45.625ZM12.1667 30.4166H18.25V36.5H12.1667V30.4166ZM12.1667 42.5833H18.25V48.6666H12.1667V42.5833ZM12.1667 54.75H18.25V60.8333H12.1667V54.75ZM60.8333 36.5H54.75V30.4166H60.8333V36.5ZM60.8333 48.6666H54.75V42.5833H60.8333V48.6666ZM60.8333 60.8333H54.75V54.75H60.8333V60.8333Z" fill="white"/>
</svg>
