<svg width="105" height="105" viewBox="0 0 105 105" fill="none" xmlns="http://www.w3.org/2000/svg">
<path fill-rule="evenodd" clip-rule="evenodd" d="M31.4624 94.635L30.4626 69.4617L41.7847 69.0088C46.6211 69.6753 51.5173 72.0935 56.4392 74.9219L65.2319 74.5715C69.2224 74.657 71.4697 78.6047 67.7014 81.4075C64.7107 83.7915 60.6348 83.8257 56.4477 83.6121C53.5681 83.5864 53.5937 87.4573 56.593 87.3462C57.6355 87.3889 58.7634 87.0984 59.7461 87.0557C64.9499 86.842 69.1968 85.6799 71.6577 81.4587L72.854 78.3313L85.6799 71.3245C92.1399 68.9062 96.4892 74.9988 91.8579 79.9548C82.655 87.2266 73.7427 93.8574 63.9844 98.8306C56.9433 103.505 49.7143 103.65 42.3315 99.6936L31.4624 94.635ZM25.4126 56.2769H103.94C104.521 56.2769 105 56.7639 105 57.3364V61.9592C105 62.5317 104.521 63.0188 103.94 63.0188H25.4126C24.8315 63.0188 24.353 62.5403 24.353 61.9592V57.3364C24.353 56.7554 24.8315 56.2769 25.4126 56.2769ZM67.727 12.0654C89.2261 13.783 107.333 31.8555 104.658 53.1323H24.7034C22.063 31.7188 40.238 13.6206 61.8909 12.0398V8.57056H58.4729C57.8747 8.57056 57.3791 8.07495 57.3791 7.47681V3.56323C57.3791 2.96509 57.8662 2.46948 58.4729 2.46948H71.051C71.6492 2.46948 72.1448 2.96509 72.1448 3.56323V7.47681C72.1448 8.07495 71.6492 8.57056 71.051 8.57056H67.727V12.0654ZM0 68.5986L26.9592 67.1802L28.1555 97.301L1.19629 98.7109L0 68.5986Z" fill="url(#paint0_linear_25_2067)"/>
<defs>
<linearGradient id="paint0_linear_25_2067" x1="105" y1="-11" x2="2.54168e-07" y2="121" gradientUnits="userSpaceOnUse">
<stop stop-color="#610083"/>
<stop offset="1" stop-color="#920192"/>
</linearGradient>
</defs>
</svg>
