<svg width="359" height="350" viewBox="0 0 359 350" fill="none" xmlns="http://www.w3.org/2000/svg">
<rect x="0.15" y="0.15" width="358.7" height="349.7" rx="19.85" fill="white" stroke="black" stroke-width="0.3"/>
<path fill-rule="evenodd" clip-rule="evenodd" d="M138.531 253.047L136.703 207.016L157.406 206.188C166.25 207.406 175.203 211.828 184.203 217L200.281 216.359C207.578 216.516 211.687 223.734 204.797 228.859C199.328 233.219 191.875 233.281 184.219 232.891C178.953 232.844 179 239.922 184.484 239.719C186.391 239.797 188.453 239.266 190.25 239.188C199.766 238.797 207.531 236.672 212.031 228.953L214.219 223.234L237.672 210.422C249.484 206 257.437 217.141 248.969 226.203C232.141 239.5 215.844 251.625 198 260.719C185.125 269.266 171.906 269.531 158.406 262.297L138.531 253.047ZM127.469 182.906H271.062C272.125 182.906 273 183.797 273 184.844V193.297C273 194.344 272.125 195.234 271.062 195.234H127.469C126.406 195.234 125.531 194.359 125.531 193.297V184.844C125.531 183.781 126.406 182.906 127.469 182.906ZM204.844 102.062C244.156 105.203 277.266 138.25 272.375 177.156H126.172C121.344 138 154.578 104.906 194.172 102.016V95.6719H187.922C186.828 95.6719 185.922 94.7656 185.922 93.6719V86.5156C185.922 85.4219 186.812 84.5156 187.922 84.5156H210.922C212.016 84.5156 212.922 85.4219 212.922 86.5156V93.6719C212.922 94.7656 212.016 95.6719 210.922 95.6719H204.844V102.062ZM81 205.438L130.297 202.844L132.484 257.922L83.1875 260.5L81 205.438Z" fill="url(#paint0_linear_148_65)"/>
<rect width="359" height="350" rx="20" fill="#5F01AB" fill-opacity="0.78"/>
<path d="M51.5414 181.44L64.1414 201H74.2814L60.6014 181.44H51.5414ZM42.0014 159V201H50.5814V159H42.0014ZM47.2214 166.32H55.5614C57.0814 166.32 58.3814 166.58 59.4614 167.1C60.5814 167.58 61.4414 168.3 62.0414 169.26C62.6414 170.18 62.9414 171.3 62.9414 172.62C62.9414 173.94 62.6414 175.08 62.0414 176.04C61.4414 176.96 60.5814 177.68 59.4614 178.2C58.3814 178.68 57.0814 178.92 55.5614 178.92H47.2214V185.76H56.1014C59.4214 185.76 62.2414 185.2 64.5614 184.08C66.8814 182.96 68.6614 181.4 69.9014 179.4C71.1414 177.36 71.7614 175.02 71.7614 172.38C71.7614 169.7 71.1414 167.36 69.9014 165.36C68.6614 163.36 66.8814 161.8 64.5614 160.68C62.2414 159.56 59.4214 159 56.1014 159H47.2214V166.32ZM91.5084 201.6C94.8284 201.6 97.6684 200.96 100.028 199.68C102.428 198.36 104.348 196.4 105.788 193.8L99.0084 191.7C98.2084 193.02 97.1884 194.02 95.9484 194.7C94.7484 195.34 93.2884 195.66 91.5684 195.66C90.0484 195.66 88.7484 195.32 87.6684 194.64C86.5884 193.96 85.7684 192.98 85.2084 191.7C84.6884 190.42 84.4284 188.86 84.4284 187.02C84.4684 185.1 84.7484 183.5 85.2684 182.22C85.8284 180.9 86.6084 179.92 87.6084 179.28C88.6484 178.6 89.9284 178.26 91.4484 178.26C92.6884 178.26 93.7684 178.54 94.6884 179.1C95.6084 179.66 96.3084 180.42 96.7884 181.38C97.3084 182.34 97.5684 183.5 97.5684 184.86C97.5684 185.14 97.4884 185.5 97.3284 185.94C97.2084 186.34 97.0684 186.66 96.9084 186.9L99.0084 184.14H81.0684V188.94H105.788C105.828 188.7 105.848 188.38 105.848 187.98C105.888 187.58 105.908 187.2 105.908 186.84C105.908 183.88 105.348 181.36 104.228 179.28C103.108 177.16 101.468 175.56 99.3084 174.48C97.1884 173.36 94.6084 172.8 91.5684 172.8C88.5284 172.8 85.8884 173.4 83.6484 174.6C81.4084 175.76 79.6684 177.42 78.4284 179.58C77.2284 181.7 76.6284 184.24 76.6284 187.2C76.6284 190.12 77.2284 192.66 78.4284 194.82C79.6684 196.94 81.4084 198.6 83.6484 199.8C85.8884 201 88.5084 201.6 91.5084 201.6ZM113.15 191.46L109.37 196.32C110.41 197.32 111.57 198.26 112.85 199.14C114.17 199.98 115.63 200.66 117.23 201.18C118.87 201.7 120.67 201.96 122.63 201.96C125.79 201.96 128.27 201.2 130.07 199.68C131.87 198.12 132.77 195.96 132.77 193.2C132.77 191.52 132.39 190.16 131.63 189.12C130.87 188.08 129.85 187.22 128.57 186.54C127.33 185.82 125.97 185.18 124.49 184.62C123.29 184.1 122.21 183.66 121.25 183.3C120.33 182.94 119.61 182.54 119.09 182.1C118.61 181.62 118.37 181.08 118.37 180.48C118.37 179.8 118.61 179.3 119.09 178.98C119.61 178.62 120.31 178.44 121.19 178.44C122.51 178.44 123.85 178.78 125.21 179.46C126.61 180.14 127.81 181.02 128.81 182.1L132.23 177.3C131.35 176.42 130.33 175.66 129.17 175.02C128.01 174.34 126.75 173.8 125.39 173.4C124.03 173 122.57 172.8 121.01 172.8C119.17 172.8 117.49 173.1 115.97 173.7C114.49 174.26 113.31 175.12 112.43 176.28C111.55 177.4 111.11 178.78 111.11 180.42C111.11 182.14 111.49 183.56 112.25 184.68C113.05 185.76 114.05 186.64 115.25 187.32C116.45 187.96 117.69 188.52 118.97 189C120.33 189.44 121.45 189.86 122.33 190.26C123.21 190.66 123.87 191.12 124.31 191.64C124.79 192.12 125.03 192.72 125.03 193.44C125.03 194.24 124.75 194.88 124.19 195.36C123.63 195.8 122.83 196.02 121.79 196.02C120.99 196.02 120.13 195.86 119.21 195.54C118.33 195.22 117.39 194.74 116.39 194.1C115.39 193.42 114.31 192.54 113.15 191.46ZM134.597 173.4V179.94H151.637V173.4H134.597ZM139.337 163.8V201H146.837V163.8H139.337ZM161.294 192.42C161.294 191.62 161.474 190.96 161.834 190.44C162.194 189.88 162.754 189.46 163.514 189.18C164.274 188.86 165.254 188.7 166.454 188.7C167.934 188.7 169.334 188.9 170.654 189.3C172.014 189.7 173.234 190.3 174.314 191.1V187.5C173.914 187.02 173.254 186.52 172.334 186C171.414 185.48 170.274 185.04 168.914 184.68C167.594 184.32 166.054 184.14 164.294 184.14C160.854 184.14 158.194 184.92 156.314 186.48C154.434 188.04 153.494 190.16 153.494 192.84C153.494 194.72 153.934 196.32 154.814 197.64C155.734 198.92 156.934 199.9 158.414 200.58C159.894 201.26 161.494 201.6 163.214 201.6C164.894 201.6 166.494 201.3 168.014 200.7C169.574 200.1 170.834 199.2 171.794 198C172.794 196.8 173.294 195.32 173.294 193.56L172.334 189.96C172.334 191.28 172.034 192.42 171.434 193.38C170.834 194.3 170.054 195.02 169.094 195.54C168.134 196.02 167.054 196.26 165.854 196.26C165.014 196.26 164.234 196.12 163.514 195.84C162.834 195.52 162.294 195.08 161.894 194.52C161.494 193.92 161.294 193.22 161.294 192.42ZM158.294 181.2C158.694 180.92 159.314 180.58 160.154 180.18C160.994 179.78 161.994 179.44 163.154 179.16C164.314 178.88 165.534 178.74 166.814 178.74C167.654 178.74 168.414 178.82 169.094 178.98C169.774 179.14 170.354 179.4 170.834 179.76C171.354 180.12 171.734 180.58 171.974 181.14C172.214 181.66 172.334 182.3 172.334 183.06V201H179.834V181.44C179.834 179.56 179.314 177.98 178.274 176.7C177.234 175.38 175.794 174.38 173.954 173.7C172.114 173.02 170.014 172.68 167.654 172.68C165.094 172.68 162.774 173.04 160.694 173.76C158.614 174.44 156.854 175.16 155.414 175.92L158.294 181.2ZM195.103 190.2V173.4H187.063V191.04C187.063 194.32 187.863 196.9 189.463 198.78C191.103 200.66 193.563 201.6 196.843 201.6C198.803 201.6 200.463 201.2 201.823 200.4C203.183 199.56 204.303 198.36 205.183 196.8V201H212.923V173.4H205.183V190.2C205.183 191.36 204.943 192.36 204.463 193.2C204.023 194.04 203.383 194.7 202.543 195.18C201.743 195.62 200.783 195.84 199.663 195.84C198.063 195.84 196.903 195.36 196.183 194.4C195.463 193.4 195.103 192 195.103 190.2ZM228.198 173.4H220.578V201H228.198V173.4ZM236.298 181.5L239.838 174.9C239.278 174.18 238.538 173.64 237.618 173.28C236.738 172.92 235.798 172.74 234.798 172.74C233.358 172.74 231.958 173.26 230.598 174.3C229.238 175.3 228.138 176.66 227.298 178.38C226.458 180.06 226.038 182 226.038 184.2L228.198 186.36C228.198 185.04 228.358 183.92 228.678 183C229.038 182.04 229.558 181.3 230.238 180.78C230.918 180.26 231.738 180 232.698 180C233.498 180 234.158 180.14 234.678 180.42C235.238 180.66 235.778 181.02 236.298 181.5ZM249.477 192.42C249.477 191.62 249.657 190.96 250.017 190.44C250.377 189.88 250.937 189.46 251.697 189.18C252.457 188.86 253.437 188.7 254.637 188.7C256.117 188.7 257.517 188.9 258.837 189.3C260.197 189.7 261.417 190.3 262.497 191.1V187.5C262.097 187.02 261.437 186.52 260.517 186C259.597 185.48 258.457 185.04 257.097 184.68C255.777 184.32 254.237 184.14 252.477 184.14C249.037 184.14 246.377 184.92 244.497 186.48C242.617 188.04 241.677 190.16 241.677 192.84C241.677 194.72 242.117 196.32 242.997 197.64C243.917 198.92 245.117 199.9 246.597 200.58C248.077 201.26 249.677 201.6 251.397 201.6C253.077 201.6 254.677 201.3 256.197 200.7C257.757 200.1 259.017 199.2 259.977 198C260.977 196.8 261.477 195.32 261.477 193.56L260.517 189.96C260.517 191.28 260.217 192.42 259.617 193.38C259.017 194.3 258.237 195.02 257.277 195.54C256.317 196.02 255.237 196.26 254.037 196.26C253.197 196.26 252.417 196.12 251.697 195.84C251.017 195.52 250.477 195.08 250.077 194.52C249.677 193.92 249.477 193.22 249.477 192.42ZM246.477 181.2C246.877 180.92 247.497 180.58 248.337 180.18C249.177 179.78 250.177 179.44 251.337 179.16C252.497 178.88 253.717 178.74 254.997 178.74C255.837 178.74 256.597 178.82 257.277 178.98C257.957 179.14 258.537 179.4 259.017 179.76C259.537 180.12 259.917 180.58 260.157 181.14C260.397 181.66 260.517 182.3 260.517 183.06V201H268.017V181.44C268.017 179.56 267.497 177.98 266.457 176.7C265.417 175.38 263.977 174.38 262.137 173.7C260.297 173.02 258.197 172.68 255.837 172.68C253.277 172.68 250.957 173.04 248.877 173.76C246.797 174.44 245.037 175.16 243.597 175.92L246.477 181.2ZM293.066 184.2V201H301.106V183.36C301.106 180.04 300.306 177.46 298.706 175.62C297.106 173.74 294.666 172.8 291.386 172.8C289.426 172.8 287.746 173.22 286.346 174.06C284.986 174.86 283.886 176.04 283.046 177.6V173.4H275.246V201H283.046V184.2C283.046 183.04 283.266 182.04 283.706 181.2C284.146 180.36 284.786 179.72 285.626 179.28C286.466 178.8 287.426 178.56 288.506 178.56C290.106 178.56 291.266 179.04 291.986 180C292.706 180.96 293.066 182.36 293.066 184.2ZM305.222 173.4V179.94H322.262V173.4H305.222ZM309.962 163.8V201H317.462V163.8H309.962Z" fill="white"/>
<defs>
<linearGradient id="paint0_linear_148_65" x1="273" y1="59.8857" x2="81" y2="301.257" gradientUnits="userSpaceOnUse">
<stop stop-color="#610083"/>
<stop offset="1" stop-color="#920192"/>
</linearGradient>
</defs>
</svg>
