<svg width="359" height="350" viewBox="0 0 359 350" fill="none" xmlns="http://www.w3.org/2000/svg">
<rect x="0.15" y="0.15" width="358.7" height="349.7" rx="19.85" fill="white" stroke="black" stroke-width="0.3"/>
<path d="M267 148L177 98L87 148L117 164.667M267 148L237 164.667M267 148C273.129 151.064 277 157.328 277 164.18V217.998M117 164.667L177 198L237 164.667M117 164.667V224.667L177 258L237 224.667V164.667" stroke="url(#paint0_linear_148_63)" stroke-width="13.67" stroke-linecap="round" stroke-linejoin="round"/>
<path d="M0 20C0 8.9543 8.95431 0 20 0H339C350.046 0 359 8.95431 359 20V330C359 341.046 350.046 350 339 350H20C8.95431 350 0 341.046 0 330V20Z" fill="#5F01AB" fill-opacity="0.78"/>
<path d="M61.2725 192.2L53.1125 197.96C54.3392 200.573 56.0458 203 58.2325 205.24C60.4192 207.48 62.9792 209.267 65.9125 210.6C68.8992 211.88 72.0992 212.52 75.5125 212.52C78.0725 212.52 80.4992 212.12 82.7925 211.32C85.1392 210.573 87.2458 209.48 89.1125 208.04C90.9792 206.547 92.4458 204.733 93.5125 202.6C94.5792 200.467 95.1125 198.04 95.1125 195.32C95.1125 192.92 94.7125 190.813 93.9125 189C93.1658 187.133 92.0992 185.533 90.7125 184.2C89.3792 182.813 87.8592 181.64 86.1525 180.68C84.4992 179.72 82.7658 178.92 80.9525 178.28C78.1258 177.32 75.7792 176.387 73.9125 175.48C72.0458 174.52 70.6592 173.533 69.7525 172.52C68.8458 171.453 68.3925 170.227 68.3925 168.84C68.3925 167.453 68.9525 166.253 70.0725 165.24C71.1925 164.173 72.8725 163.64 75.1125 163.64C76.8192 163.64 78.3392 163.987 79.6725 164.68C81.0058 165.32 82.1792 166.2 83.1925 167.32C84.2592 168.387 85.1658 169.587 85.9125 170.92L94.8725 165.96C93.9125 163.987 92.5525 162.093 90.7925 160.28C89.0858 158.413 86.9258 156.893 84.3125 155.72C81.7525 154.493 78.6858 153.88 75.1125 153.88C71.6458 153.88 68.4992 154.52 65.6725 155.8C62.8992 157.027 60.6858 158.813 59.0325 161.16C57.4325 163.453 56.6325 166.2 56.6325 169.4C56.6325 172.067 57.1392 174.36 58.1525 176.28C59.1658 178.147 60.4458 179.747 61.9925 181.08C63.5392 182.36 65.1658 183.427 66.8725 184.28C68.6325 185.08 70.1792 185.72 71.5125 186.2C74.0192 187.16 76.1258 188.067 77.8325 188.92C79.5925 189.72 80.8992 190.653 81.7525 191.72C82.6592 192.787 83.1125 194.2 83.1125 195.96C83.1125 197.987 82.3925 199.587 80.9525 200.76C79.5125 201.933 77.6458 202.52 75.3525 202.52C73.3792 202.52 71.5392 202.093 69.8325 201.24C68.1258 200.387 66.5525 199.187 65.1125 197.64C63.7258 196.093 62.4458 194.28 61.2725 192.2ZM111.319 192.6C111.319 190.52 111.799 188.68 112.759 187.08C113.719 185.48 114.999 184.227 116.599 183.32C118.253 182.36 120.066 181.88 122.039 181.88C123.533 181.88 125.026 182.12 126.519 182.6C128.013 183.08 129.373 183.773 130.599 184.68C131.879 185.533 132.839 186.547 133.479 187.72V177.08C132.199 175.96 130.519 175.08 128.439 174.44C126.413 173.747 124.039 173.4 121.319 173.4C117.426 173.4 113.906 174.2 110.759 175.8C107.666 177.4 105.213 179.64 103.399 182.52C101.639 185.4 100.759 188.76 100.759 192.6C100.759 196.387 101.639 199.747 103.399 202.68C105.213 205.56 107.666 207.8 110.759 209.4C113.906 211 117.426 211.8 121.319 211.8C124.039 211.8 126.413 211.48 128.439 210.84C130.519 210.147 132.199 209.213 133.479 208.04V197.4C132.839 198.573 131.906 199.613 130.679 200.52C129.506 201.373 128.173 202.067 126.679 202.6C125.186 203.08 123.639 203.32 122.039 203.32C120.066 203.32 118.253 202.867 116.599 201.96C114.999 201.053 113.719 199.8 112.759 198.2C111.799 196.6 111.319 194.733 111.319 192.6ZM153.02 148.6H142.62V211H153.02V148.6ZM166.38 188.6V211H176.78V187.08C176.78 184.04 176.327 181.48 175.42 179.4C174.513 177.267 173.127 175.667 171.26 174.6C169.393 173.533 167.02 173 164.14 173C161.26 173 158.833 173.693 156.86 175.08C154.887 176.467 153.393 178.333 152.38 180.68C151.42 183.027 150.94 185.667 150.94 188.6H153.02C153.02 187.053 153.313 185.72 153.9 184.6C154.487 183.48 155.34 182.627 156.46 182.04C157.58 181.4 158.86 181.08 160.3 181.08C162.487 181.08 164.033 181.72 164.94 183C165.9 184.28 166.38 186.147 166.38 188.6ZM184.515 192.6C184.515 196.387 185.395 199.747 187.155 202.68C188.968 205.56 191.395 207.8 194.435 209.4C197.528 211 201.022 211.8 204.915 211.8C208.808 211.8 212.275 211 215.315 209.4C218.408 207.8 220.835 205.56 222.595 202.68C224.408 199.747 225.315 196.387 225.315 192.6C225.315 188.76 224.408 185.4 222.595 182.52C220.835 179.64 218.408 177.4 215.315 175.8C212.275 174.2 208.808 173.4 204.915 173.4C201.022 173.4 197.528 174.2 194.435 175.8C191.395 177.4 188.968 179.64 187.155 182.52C185.395 185.4 184.515 188.76 184.515 192.6ZM195.075 192.6C195.075 190.52 195.502 188.68 196.355 187.08C197.262 185.48 198.462 184.253 199.955 183.4C201.448 182.547 203.102 182.12 204.915 182.12C206.728 182.12 208.382 182.547 209.875 183.4C211.368 184.253 212.542 185.48 213.395 187.08C214.302 188.68 214.755 190.52 214.755 192.6C214.755 194.68 214.302 196.52 213.395 198.12C212.542 199.667 211.368 200.893 209.875 201.8C208.382 202.653 206.728 203.08 204.915 203.08C203.102 203.08 201.448 202.653 199.955 201.8C198.462 200.893 197.262 199.667 196.355 198.12C195.502 196.52 195.075 194.68 195.075 192.6ZM230.609 192.6C230.609 196.387 231.489 199.747 233.249 202.68C235.062 205.56 237.489 207.8 240.529 209.4C243.622 211 247.115 211.8 251.009 211.8C254.902 211.8 258.369 211 261.409 209.4C264.502 207.8 266.929 205.56 268.689 202.68C270.502 199.747 271.409 196.387 271.409 192.6C271.409 188.76 270.502 185.4 268.689 182.52C266.929 179.64 264.502 177.4 261.409 175.8C258.369 174.2 254.902 173.4 251.009 173.4C247.115 173.4 243.622 174.2 240.529 175.8C237.489 177.4 235.062 179.64 233.249 182.52C231.489 185.4 230.609 188.76 230.609 192.6ZM241.169 192.6C241.169 190.52 241.595 188.68 242.449 187.08C243.355 185.48 244.555 184.253 246.049 183.4C247.542 182.547 249.195 182.12 251.009 182.12C252.822 182.12 254.475 182.547 255.969 183.4C257.462 184.253 258.635 185.48 259.489 187.08C260.395 188.68 260.849 190.52 260.849 192.6C260.849 194.68 260.395 196.52 259.489 198.12C258.635 199.667 257.462 200.893 255.969 201.8C254.475 202.653 252.822 203.08 251.009 203.08C249.195 203.08 247.542 202.653 246.049 201.8C244.555 200.893 243.355 199.667 242.449 198.12C241.595 196.52 241.169 194.68 241.169 192.6ZM279.183 148.6V211H289.583V148.6H279.183Z" fill="white"/>
<defs>
<linearGradient id="paint0_linear_148_63" x1="276.213" y1="67.8425" x2="122.197" y2="257.764" gradientUnits="userSpaceOnUse">
<stop stop-color="#6801A9"/>
<stop offset="1" stop-color="#A90184"/>
</linearGradient>
</defs>
</svg>
