<svg width="120" height="120" viewBox="0 0 120 120" fill="none" xmlns="http://www.w3.org/2000/svg">
<g clip-path="url(#clip0_25_2058)">
<path fill-rule="evenodd" clip-rule="evenodd" d="M21.5723 0H99.3945C101.221 0 102.705 1.49414 102.705 3.32031C102.705 5.14648 101.211 6.64062 99.3945 6.64062H21.5723C19.7461 6.64062 18.2617 5.14648 18.2617 3.32031C18.252 1.49414 19.7461 0 21.5723 0ZM117.285 42.1582V46.1621C117.324 46.543 117.344 46.9238 117.344 47.3047C117.344 54.0234 111.064 59.4727 103.32 59.4727C95.5762 59.4727 89.2969 54.0234 89.2969 47.3047C89.2969 47.0215 89.3066 46.7285 89.3262 46.4453H88.7695C88.7891 46.7285 88.7988 47.0117 88.7988 47.3047C88.7988 54.0234 82.5195 59.4727 74.7754 59.4727C67.0312 59.4727 60.752 54.0234 60.752 47.3047C60.752 47.0215 60.7617 46.7285 60.7812 46.4453H60.2246C60.2441 46.7285 60.2539 47.0117 60.2539 47.3047C60.2539 54.0234 53.9746 59.4727 46.2305 59.4727C38.4863 59.4727 32.207 54.0234 32.207 47.3047C32.207 47.0215 32.2168 46.7285 32.2363 46.4453H31.8848C31.9043 46.7285 31.9141 47.0117 31.9141 47.3047C31.9141 54.0234 25.6348 59.4727 17.8906 59.4727C10.1465 59.4727 3.86719 54.0234 3.86719 47.3047C3.86719 46.9727 3.88672 46.6504 3.91602 46.3281V42.1582H117.285ZM17.9297 10.1953H103.516L114.424 33.4863H6.62109L17.9297 10.1953ZM4.79492 105.479H16.6309V68.0762C16.8262 68.0859 17.0215 68.0957 17.2168 68.0957H17.2656H17.4902H17.5293H17.5586H17.7148H17.7441H17.8809V68.125H17.8906V68.0957C23.2422 68.0957 28.1934 66.3867 32.0508 63.5547L32.0801 63.5742L32.1094 63.5938L32.1387 63.6133L32.168 63.6328L32.1973 63.6523L32.2266 63.6719L32.2363 63.6816L32.2559 63.6914L32.2852 63.7109L32.3145 63.7305L32.3438 63.75H32.3535L32.4512 63.8184L32.4805 63.8379L32.4902 63.8476L32.5391 63.877L32.5684 63.8965L32.5977 63.916L32.6074 63.9258L32.627 63.9355L32.6562 63.9551L32.6855 63.9746L32.7148 63.9941L32.7344 64.0527L32.7637 64.0723L32.7832 64.0918L32.8125 64.1113L32.8418 64.1309L32.8711 64.1504L32.9004 64.1699L32.9297 64.1895L32.959 64.209H32.9688L33.1934 64.3555L33.2227 64.375L33.252 64.3945L33.4277 64.5117L33.457 64.5312L33.6719 64.6582L33.7109 64.668L33.7402 64.6875L33.7695 64.707L33.7988 64.7266L33.8281 64.7461L33.8574 64.7656L33.8867 64.7851L33.916 64.8047V89.3164H86.0449V65.3613C86.8848 64.9219 87.7051 64.4238 88.4766 63.8867L88.4961 63.8672H88.5059L88.6621 63.7598L88.6719 63.75L88.7207 63.7207L88.7695 63.6914L88.8477 63.6328H88.8574L88.8672 63.623L89.0332 63.5059C92.9102 66.3867 97.9004 68.125 103.301 68.125V68.1543H103.311V68.125H103.34V105.498H115.176C117.002 105.498 118.496 108.76 118.496 112.754C118.496 116.748 117.002 120.01 115.176 120.01H4.79492C2.97852 120.01 1.48438 116.748 1.48438 112.754C1.48438 108.75 2.97852 105.479 4.79492 105.479Z" fill="url(#paint0_linear_25_2058)"/>
</g>
<defs>
<linearGradient id="paint0_linear_25_2058" x1="118" y1="14.5" x2="1" y2="120" gradientUnits="userSpaceOnUse">
<stop stop-color="#9F018A"/>
<stop offset="1" stop-color="#7A019F"/>
</linearGradient>
<clipPath id="clip0_25_2058">
<rect width="120" height="120" fill="white"/>
</clipPath>
</defs>
</svg>
