<svg width="360" height="350" viewBox="0 0 360 350" fill="none" xmlns="http://www.w3.org/2000/svg">
<rect x="1.15" y="0.15" width="358.7" height="349.7" rx="19.85" fill="white" stroke="black" stroke-width="0.3"/>
<g clip-path="url(#clip0_148_64)">
<path fill-rule="evenodd" clip-rule="evenodd" d="M120.032 79H253.627C256.762 79 259.31 81.3906 259.31 84.3125C259.31 87.2344 256.745 89.625 253.627 89.625H120.032C116.897 89.625 114.349 87.2344 114.349 84.3125C114.332 81.3906 116.897 79 120.032 79ZM284.339 146.453V152.859C284.406 153.469 284.44 154.078 284.44 154.688C284.44 165.438 273.661 174.156 260.366 174.156C247.072 174.156 236.293 165.438 236.293 154.688C236.293 154.234 236.31 153.766 236.343 153.312H235.388C235.421 153.766 235.438 154.219 235.438 154.688C235.438 165.438 224.658 174.156 211.364 174.156C198.07 174.156 187.291 165.438 187.291 154.688C187.291 154.234 187.308 153.766 187.341 153.312H186.385C186.419 153.766 186.436 154.219 186.436 154.688C186.436 165.438 175.656 174.156 162.362 174.156C149.068 174.156 138.289 165.438 138.289 154.688C138.289 154.234 138.305 153.766 138.339 153.312H137.735C137.769 153.766 137.786 154.219 137.786 154.688C137.786 165.438 127.006 174.156 113.712 174.156C100.418 174.156 89.6386 165.438 89.6386 154.688C89.6386 154.156 89.6721 153.641 89.7224 153.125V146.453H284.339ZM113.779 95.3125H260.702L279.427 132.578H94.3661L113.779 95.3125ZM91.2312 247.766H111.55V187.922C111.885 187.938 112.22 187.953 112.555 187.953H112.639H113.025H113.092H113.142H113.41H113.461H113.695V188H113.712V187.953C122.899 187.953 131.399 185.219 138.02 180.688L138.071 180.719L138.121 180.75L138.171 180.781L138.222 180.813L138.272 180.844L138.322 180.875L138.339 180.891L138.372 180.906L138.423 180.938L138.473 180.969L138.523 181H138.54L138.708 181.109L138.758 181.141L138.775 181.156L138.859 181.203L138.909 181.234L138.959 181.266L138.976 181.281L139.01 181.297L139.06 181.328L139.11 181.359L139.16 181.391L139.194 181.484L139.244 181.516L139.278 181.547L139.328 181.578L139.378 181.609L139.429 181.641L139.479 181.672L139.529 181.703L139.58 181.734H139.596L139.982 181.969L140.032 182L140.082 182.031L140.384 182.219L140.434 182.25L140.803 182.453L140.87 182.469L140.921 182.5L140.971 182.531L141.021 182.562L141.072 182.594L141.122 182.625L141.172 182.656L141.222 182.688V221.906H230.71V183.578C232.152 182.875 233.56 182.078 234.885 181.219L234.918 181.188H234.935L235.203 181.016L235.22 181L235.304 180.953L235.388 180.906L235.522 180.813H235.538L235.555 180.797L235.84 180.609C242.496 185.219 251.062 188 260.333 188V188.047H260.35V188H260.4V247.797H280.718C283.853 247.797 286.418 253.016 286.418 259.406C286.418 265.797 283.853 271.016 280.718 271.016H91.2312C88.113 271.016 85.5481 265.797 85.5481 259.406C85.5481 253 88.113 247.766 91.2312 247.766Z" fill="url(#paint0_linear_148_64)"/>
</g>
<rect width="359" height="350" rx="20" fill="#5F01AB" fill-opacity="0.78"/>
<path d="M106.14 190.2L97.9797 195.96C99.2064 198.573 100.913 201 103.1 203.24C105.286 205.48 107.846 207.267 110.78 208.6C113.766 209.88 116.966 210.52 120.38 210.52C122.94 210.52 125.366 210.12 127.66 209.32C130.006 208.573 132.113 207.48 133.98 206.04C135.846 204.547 137.313 202.733 138.38 200.6C139.446 198.467 139.98 196.04 139.98 193.32C139.98 190.92 139.58 188.813 138.78 187C138.033 185.133 136.966 183.533 135.58 182.2C134.246 180.813 132.726 179.64 131.02 178.68C129.366 177.72 127.633 176.92 125.82 176.28C122.993 175.32 120.646 174.387 118.78 173.48C116.913 172.52 115.526 171.533 114.62 170.52C113.713 169.453 113.26 168.227 113.26 166.84C113.26 165.453 113.82 164.253 114.94 163.24C116.06 162.173 117.74 161.64 119.98 161.64C121.686 161.64 123.206 161.987 124.54 162.68C125.873 163.32 127.046 164.2 128.06 165.32C129.126 166.387 130.033 167.587 130.78 168.92L139.74 163.96C138.78 161.987 137.42 160.093 135.66 158.28C133.953 156.413 131.793 154.893 129.18 153.72C126.62 152.493 123.553 151.88 119.98 151.88C116.513 151.88 113.366 152.52 110.54 153.8C107.766 155.027 105.553 156.813 103.9 159.16C102.3 161.453 101.5 164.2 101.5 167.4C101.5 170.067 102.006 172.36 103.02 174.28C104.033 176.147 105.313 177.747 106.86 179.08C108.406 180.36 110.033 181.427 111.74 182.28C113.5 183.08 115.046 183.72 116.38 184.2C118.886 185.16 120.993 186.067 122.7 186.92C124.46 187.72 125.766 188.653 126.62 189.72C127.526 190.787 127.98 192.2 127.98 193.96C127.98 195.987 127.26 197.587 125.82 198.76C124.38 199.933 122.513 200.52 120.22 200.52C118.246 200.52 116.406 200.093 114.7 199.24C112.993 198.387 111.42 197.187 109.98 195.64C108.593 194.093 107.313 192.28 106.14 190.2ZM158.747 146.6H148.347V209H158.747V146.6ZM172.107 186.6V209H182.507V185.08C182.507 182.04 182.053 179.48 181.147 177.4C180.24 175.267 178.853 173.667 176.987 172.6C175.12 171.533 172.747 171 169.867 171C166.987 171 164.56 171.693 162.587 173.08C160.613 174.467 159.12 176.333 158.107 178.68C157.147 181.027 156.667 183.667 156.667 186.6H158.747C158.747 185.053 159.04 183.72 159.627 182.6C160.213 181.48 161.067 180.627 162.187 180.04C163.307 179.4 164.587 179.08 166.027 179.08C168.213 179.08 169.76 179.72 170.667 181C171.627 182.28 172.107 184.147 172.107 186.6ZM190.242 190.6C190.242 194.387 191.122 197.747 192.882 200.68C194.695 203.56 197.122 205.8 200.162 207.4C203.255 209 206.748 209.8 210.642 209.8C214.535 209.8 218.002 209 221.042 207.4C224.135 205.8 226.562 203.56 228.322 200.68C230.135 197.747 231.042 194.387 231.042 190.6C231.042 186.76 230.135 183.4 228.322 180.52C226.562 177.64 224.135 175.4 221.042 173.8C218.002 172.2 214.535 171.4 210.642 171.4C206.748 171.4 203.255 172.2 200.162 173.8C197.122 175.4 194.695 177.64 192.882 180.52C191.122 183.4 190.242 186.76 190.242 190.6ZM200.802 190.6C200.802 188.52 201.228 186.68 202.082 185.08C202.988 183.48 204.188 182.253 205.682 181.4C207.175 180.547 208.828 180.12 210.642 180.12C212.455 180.12 214.108 180.547 215.602 181.4C217.095 182.253 218.268 183.48 219.122 185.08C220.028 186.68 220.482 188.52 220.482 190.6C220.482 192.68 220.028 194.52 219.122 196.12C218.268 197.667 217.095 198.893 215.602 199.8C214.108 200.653 212.455 201.08 210.642 201.08C208.828 201.08 207.175 200.653 205.682 199.8C204.188 198.893 202.988 197.667 202.082 196.12C201.228 194.52 200.802 192.68 200.802 190.6ZM248.975 226.6V172.2H238.575V226.6H248.975ZM279.215 190.6C279.215 186.387 278.389 182.84 276.735 179.96C275.082 177.027 272.895 174.813 270.175 173.32C267.509 171.827 264.629 171.08 261.535 171.08C258.389 171.08 255.642 171.88 253.295 173.48C251.002 175.08 249.215 177.347 247.935 180.28C246.709 183.16 246.095 186.6 246.095 190.6C246.095 194.547 246.709 197.987 247.935 200.92C249.215 203.853 251.002 206.12 253.295 207.72C255.642 209.32 258.389 210.12 261.535 210.12C264.629 210.12 267.509 209.373 270.175 207.88C272.895 206.387 275.082 204.173 276.735 201.24C278.389 198.307 279.215 194.76 279.215 190.6ZM268.495 190.6C268.495 192.787 268.042 194.653 267.135 196.2C266.229 197.747 265.002 198.92 263.455 199.72C261.962 200.52 260.309 200.92 258.495 200.92C256.949 200.92 255.429 200.547 253.935 199.8C252.495 199 251.295 197.827 250.335 196.28C249.429 194.733 248.975 192.84 248.975 190.6C248.975 188.36 249.429 186.467 250.335 184.92C251.295 183.373 252.495 182.227 253.935 181.48C255.429 180.68 256.949 180.28 258.495 180.28C260.309 180.28 261.962 180.68 263.455 181.48C265.002 182.28 266.229 183.453 267.135 185C268.042 186.547 268.495 188.413 268.495 190.6Z" fill="white"/>
<defs>
<linearGradient id="paint0_linear_148_64" x1="285.567" y1="102.2" x2="97.4667" y2="284.179" gradientUnits="userSpaceOnUse">
<stop stop-color="#9F018A"/>
<stop offset="1" stop-color="#7A019F"/>
</linearGradient>
<clipPath id="clip0_148_64">
<rect width="206" height="192" fill="white" transform="translate(83 79)"/>
</clipPath>
</defs>
</svg>
