<svg width="89" height="89" viewBox="0 0 89 89" fill="none" xmlns="http://www.w3.org/2000/svg">
<path fill-rule="evenodd" clip-rule="evenodd" d="M73.4252 37.7508C72.2756 25.9583 65.3039 7.41663 43.7585 7.41663C22.2131 7.41663 15.2414 25.9583 14.0918 37.7508C10.0591 39.2813 7.39899 43.1532 7.41674 47.4666V52.6583C7.41674 58.3928 12.0656 63.0416 17.8002 63.0416C23.5347 63.0416 28.1835 58.3928 28.1835 52.6583V47.4666C28.1649 43.2463 25.6025 39.454 21.6939 37.862C22.4356 31.0387 26.0697 14.8333 43.7585 14.8333C61.4473 14.8333 65.0443 31.0387 65.786 37.862C61.8853 39.4575 59.3359 43.2523 59.3335 47.4666V52.6583C59.3496 56.6447 61.6386 60.2726 65.2297 62.0033C63.6722 64.9329 59.7043 68.9008 49.9514 70.0875C48.0019 67.1271 44.23 65.96 40.9492 67.3021C37.6684 68.6441 35.7959 72.1201 36.4801 75.5981C37.1642 79.0761 40.2138 81.5833 43.7585 81.5833C46.5595 81.5678 49.1129 79.9755 50.3593 77.467C66.2681 75.65 71.3485 67.4545 72.9431 62.6337C77.257 61.2363 80.1583 57.1926 80.1002 52.6583V47.4666C80.118 43.1532 77.4579 39.2813 73.4252 37.7508ZM20.7668 52.6583C20.7668 54.2967 19.4386 55.625 17.8002 55.625C16.1617 55.625 14.8335 54.2967 14.8335 52.6583V47.4666C14.8335 46.4067 15.3989 45.4274 16.3168 44.8974C17.2347 44.3675 18.3656 44.3675 19.2835 44.8974C20.2014 45.4274 20.7668 46.4067 20.7668 47.4666V52.6583ZM66.7502 47.4666C66.7502 45.8282 68.0784 44.5 69.7168 44.5C71.3553 44.5 72.6835 45.8282 72.6835 47.4666V52.6583C72.6835 54.2967 71.3553 55.625 69.7168 55.625C68.0784 55.625 66.7502 54.2967 66.7502 52.6583V47.4666Z" fill="white"/>
</svg>
