<svg width="120" height="120" viewBox="0 0 120 120" fill="none" xmlns="http://www.w3.org/2000/svg">
<path d="M93.9916 33.4989L79.5537 47.9368L79.5916 48.0632L90.5558 88.421C90.7435 89.3028 90.7206 90.2164 90.4891 91.0878C90.2575 91.9591 89.8238 92.7635 89.2232 93.4358L85.6042 97.0547C85.3702 97.328 85.071 97.5379 84.7344 97.665C84.3978 97.7922 84.0346 97.8324 83.6783 97.7821C83.3221 97.7317 82.9842 97.5924 82.696 97.3769C82.4079 97.1615 82.1786 96.8769 82.0295 96.5495L67.2 69.7074L62.4947 64.9958L50.0526 77.4379C48.6266 78.7104 47.0328 79.7814 45.3158 80.621L48.0947 89.76C48.3056 90.6312 48.3014 91.5407 48.0824 92.4099C47.8635 93.2792 47.4363 94.0821 46.8379 94.7495L45.7326 95.861C45.1683 96.4211 44.4055 96.7353 43.6105 96.7353C42.8155 96.7353 42.0527 96.4211 41.4884 95.861L34.92 89.2989L34.8063 89.1726L29.8295 84.2084L29.7032 84.0821L23.1474 77.52C22.5874 76.9557 22.2731 76.1929 22.2731 75.3979C22.2731 74.6029 22.5874 73.8401 23.1474 73.2758L24.2589 72.1642C24.9275 71.5679 25.731 71.1432 26.6002 70.9264C27.4693 70.7097 28.3782 70.7075 29.2484 70.92L38.3874 73.6863C39.2277 71.9697 40.2987 70.3761 41.5705 68.9495L54.0126 56.5074L49.3011 51.8084L22.4589 36.9789C22.1315 36.8298 21.8469 36.6006 21.6315 36.3124C21.416 36.0242 21.2767 35.6864 21.2263 35.3301C21.176 34.9738 21.2162 34.6106 21.3434 34.274C21.4705 33.9374 21.6804 33.6382 21.9537 33.4042L25.5726 29.7853C26.2452 29.185 27.0496 28.7516 27.9209 28.5201C28.7921 28.2886 29.7056 28.2655 30.5874 28.4526L70.9453 39.4168L71.0716 39.4547L85.5095 25.0168C87.8463 22.6674 95.7474 18.5747 98.0968 20.9116C100.434 23.261 96.3347 31.1558 93.9916 33.4989Z" fill="url(#paint0_linear_25_2070)"/>
<defs>
<linearGradient id="paint0_linear_25_2070" x1="29" y1="12" x2="108.5" y2="109" gradientUnits="userSpaceOnUse">
<stop stop-color="#850199"/>
<stop offset="1" stop-color="#97018F"/>
</linearGradient>
</defs>
</svg>
