<svg width="359" height="350" viewBox="0 0 359 350" fill="none" xmlns="http://www.w3.org/2000/svg">
<rect x="0.15" y="0.15" width="358.7" height="349.7" rx="19.85" fill="white" stroke="black" stroke-width="0.3"/>
<path d="M257.614 116.489L224.648 149.456L224.734 149.744L249.769 241.895C250.198 243.908 250.145 245.994 249.617 247.984C249.088 249.973 248.098 251.81 246.726 253.345L238.463 261.608C237.929 262.232 237.246 262.712 236.477 263.002C235.708 263.292 234.879 263.384 234.066 263.269C233.252 263.154 232.481 262.836 231.823 262.344C231.165 261.852 230.641 261.202 230.301 260.455L196.44 199.165L185.696 188.407L157.287 216.817C154.031 219.722 150.392 222.168 146.471 224.085L152.816 244.952C153.298 246.941 153.288 249.018 152.788 251.003C152.288 252.987 151.313 254.821 149.947 256.345L147.423 258.883C146.134 260.161 144.393 260.879 142.577 260.879C140.762 260.879 139.02 260.161 137.732 258.883L122.734 243.899L122.474 243.611L111.111 232.276L110.822 231.987L95.8531 217.004C94.5745 215.716 93.8569 213.974 93.8569 212.159C93.8569 210.343 94.5745 208.602 95.8531 207.313L98.3912 204.775C99.9178 203.414 101.752 202.444 103.737 201.949C105.722 201.454 107.797 201.449 109.784 201.934L130.651 208.25C132.57 204.331 135.015 200.692 137.919 197.435L166.329 169.025L155.571 158.296L94.2812 124.435C93.5336 124.095 92.8838 123.571 92.3918 122.913C91.8999 122.255 91.5818 121.484 91.4668 120.67C91.3518 119.857 91.4437 119.028 91.734 118.259C92.0243 117.49 92.5035 116.807 93.1276 116.273L101.391 108.01C102.927 106.639 104.763 105.65 106.753 105.121C108.742 104.592 110.828 104.539 112.841 104.967L204.992 130.002L205.28 130.088L238.247 97.1218C243.582 91.7572 261.623 82.4123 266.988 87.7481C272.324 93.1128 262.964 111.139 257.614 116.489Z" fill="url(#paint0_linear_148_66)"/>
<rect width="359" height="350" rx="20" fill="#5F01AB" fill-opacity="0.78"/>
<path d="M101.202 140.74H112.482V175H121.062V140.74H132.402V133H101.202V140.74ZM139.372 147.4H131.752V175H139.372V147.4ZM147.472 155.5L151.012 148.9C150.452 148.18 149.712 147.64 148.792 147.28C147.912 146.92 146.972 146.74 145.972 146.74C144.532 146.74 143.132 147.26 141.772 148.3C140.412 149.3 139.312 150.66 138.472 152.38C137.632 154.06 137.212 156 137.212 158.2L139.372 160.36C139.372 159.04 139.532 157.92 139.852 157C140.212 156.04 140.732 155.3 141.412 154.78C142.092 154.26 142.912 154 143.872 154C144.672 154 145.332 154.14 145.852 154.42C146.412 154.66 146.952 155.02 147.472 155.5ZM160.651 166.42C160.651 165.62 160.831 164.96 161.191 164.44C161.551 163.88 162.111 163.46 162.871 163.18C163.631 162.86 164.611 162.7 165.811 162.7C167.291 162.7 168.691 162.9 170.011 163.3C171.371 163.7 172.591 164.3 173.671 165.1V161.5C173.271 161.02 172.611 160.52 171.691 160C170.771 159.48 169.631 159.04 168.271 158.68C166.951 158.32 165.411 158.14 163.651 158.14C160.211 158.14 157.551 158.92 155.671 160.48C153.791 162.04 152.851 164.16 152.851 166.84C152.851 168.72 153.291 170.32 154.171 171.64C155.091 172.92 156.291 173.9 157.771 174.58C159.251 175.26 160.851 175.6 162.571 175.6C164.251 175.6 165.851 175.3 167.371 174.7C168.931 174.1 170.191 173.2 171.151 172C172.151 170.8 172.651 169.32 172.651 167.56L171.691 163.96C171.691 165.28 171.391 166.42 170.791 167.38C170.191 168.3 169.411 169.02 168.451 169.54C167.491 170.02 166.411 170.26 165.211 170.26C164.371 170.26 163.591 170.12 162.871 169.84C162.191 169.52 161.651 169.08 161.251 168.52C160.851 167.92 160.651 167.22 160.651 166.42ZM157.651 155.2C158.051 154.92 158.671 154.58 159.511 154.18C160.351 153.78 161.351 153.44 162.511 153.16C163.671 152.88 164.891 152.74 166.171 152.74C167.011 152.74 167.771 152.82 168.451 152.98C169.131 153.14 169.711 153.4 170.191 153.76C170.711 154.12 171.091 154.58 171.331 155.14C171.571 155.66 171.691 156.3 171.691 157.06V175H179.191V155.44C179.191 153.56 178.671 151.98 177.631 150.7C176.591 149.38 175.151 148.38 173.311 147.7C171.471 147.02 169.371 146.68 167.011 146.68C164.451 146.68 162.131 147.04 160.051 147.76C157.971 148.44 156.211 149.16 154.771 149.92L157.651 155.2ZM182.167 147.4L197.287 177.88L212.407 147.4H204.067L197.287 164.02L190.507 147.4H182.167ZM228.268 175.6C231.588 175.6 234.428 174.96 236.788 173.68C239.188 172.36 241.108 170.4 242.548 167.8L235.768 165.7C234.968 167.02 233.948 168.02 232.708 168.7C231.508 169.34 230.048 169.66 228.328 169.66C226.808 169.66 225.508 169.32 224.428 168.64C223.348 167.96 222.528 166.98 221.968 165.7C221.448 164.42 221.188 162.86 221.188 161.02C221.228 159.1 221.508 157.5 222.028 156.22C222.588 154.9 223.368 153.92 224.368 153.28C225.408 152.6 226.688 152.26 228.208 152.26C229.448 152.26 230.528 152.54 231.448 153.1C232.368 153.66 233.068 154.42 233.548 155.38C234.068 156.34 234.328 157.5 234.328 158.86C234.328 159.14 234.248 159.5 234.088 159.94C233.968 160.34 233.828 160.66 233.668 160.9L235.768 158.14H217.828V162.94H242.548C242.588 162.7 242.608 162.38 242.608 161.98C242.648 161.58 242.668 161.2 242.668 160.84C242.668 157.88 242.108 155.36 240.988 153.28C239.868 151.16 238.228 149.56 236.068 148.48C233.948 147.36 231.368 146.8 228.328 146.8C225.288 146.8 222.648 147.4 220.408 148.6C218.168 149.76 216.428 151.42 215.188 153.58C213.988 155.7 213.388 158.24 213.388 161.2C213.388 164.12 213.988 166.66 215.188 168.82C216.428 170.94 218.168 172.6 220.408 173.8C222.648 175 225.268 175.6 228.268 175.6ZM248.529 128.2V175H256.329V128.2H248.529ZM88.6632 210.46H110.863L109.843 203.68H89.6832L88.6632 210.46ZM99.6432 191.62L105.943 206.2L105.823 208.36L111.223 220H120.943L99.6432 175.54L78.3432 220H88.0032L93.5232 208L93.3432 206.08L99.6432 191.62ZM123.459 221.92C123.619 224.32 124.259 226.44 125.379 228.28C126.539 230.16 128.199 231.6 130.359 232.6C132.519 233.64 135.199 234.16 138.399 234.16C141.039 234.16 143.479 233.64 145.719 232.6C147.959 231.6 149.739 230 151.059 227.8C152.419 225.6 153.099 222.8 153.099 219.4V192.4H145.599V219.4C145.599 221.28 145.239 222.84 144.519 224.08C143.839 225.32 142.919 226.24 141.759 226.84C140.639 227.44 139.439 227.74 138.159 227.74C136.759 227.74 135.539 227.5 134.499 227.02C133.459 226.54 132.639 225.86 132.039 224.98C131.439 224.14 131.119 223.12 131.079 221.92H123.459ZM122.919 205.96C122.919 209 123.539 211.58 124.779 213.7C126.019 215.78 127.659 217.36 129.699 218.44C131.739 219.52 133.899 220.06 136.179 220.06C138.499 220.06 140.539 219.52 142.299 218.44C144.099 217.32 145.499 215.7 146.499 213.58C147.539 211.46 148.059 208.92 148.059 205.96C148.059 202.96 147.539 200.42 146.499 198.34C145.499 196.22 144.099 194.6 142.299 193.48C140.539 192.36 138.499 191.8 136.179 191.8C133.899 191.8 131.739 192.34 129.699 193.42C127.659 194.5 126.019 196.1 124.779 198.22C123.539 200.3 122.919 202.88 122.919 205.96ZM130.959 205.96C130.959 204.28 131.299 202.88 131.979 201.76C132.659 200.6 133.579 199.72 134.739 199.12C135.899 198.52 137.139 198.22 138.459 198.22C139.339 198.22 140.199 198.4 141.039 198.76C141.879 199.08 142.639 199.56 143.319 200.2C144.039 200.84 144.599 201.64 144.999 202.6C145.399 203.56 145.599 204.68 145.599 205.96C145.599 207.64 145.239 209.06 144.519 210.22C143.839 211.34 142.939 212.2 141.819 212.8C140.739 213.36 139.619 213.64 138.459 213.64C137.139 213.64 135.899 213.34 134.739 212.74C133.579 212.14 132.659 211.28 131.979 210.16C131.299 209 130.959 207.6 130.959 205.96ZM173.659 220.6C176.979 220.6 179.819 219.96 182.179 218.68C184.579 217.36 186.499 215.4 187.939 212.8L181.159 210.7C180.359 212.02 179.339 213.02 178.099 213.7C176.899 214.34 175.439 214.66 173.719 214.66C172.199 214.66 170.899 214.32 169.819 213.64C168.739 212.96 167.919 211.98 167.359 210.7C166.839 209.42 166.579 207.86 166.579 206.02C166.619 204.1 166.899 202.5 167.419 201.22C167.979 199.9 168.759 198.92 169.759 198.28C170.799 197.6 172.079 197.26 173.599 197.26C174.839 197.26 175.919 197.54 176.839 198.1C177.759 198.66 178.459 199.42 178.939 200.38C179.459 201.34 179.719 202.5 179.719 203.86C179.719 204.14 179.639 204.5 179.479 204.94C179.359 205.34 179.219 205.66 179.059 205.9L181.159 203.14H163.219V207.94H187.939C187.979 207.7 187.999 207.38 187.999 206.98C188.039 206.58 188.059 206.2 188.059 205.84C188.059 202.88 187.499 200.36 186.379 198.28C185.259 196.16 183.619 194.56 181.459 193.48C179.339 192.36 176.759 191.8 173.719 191.8C170.679 191.8 168.039 192.4 165.799 193.6C163.559 194.76 161.819 196.42 160.579 198.58C159.379 200.7 158.779 203.24 158.779 206.2C158.779 209.12 159.379 211.66 160.579 213.82C161.819 215.94 163.559 217.6 165.799 218.8C168.039 220 170.659 220.6 173.659 220.6ZM211.74 203.2V220H219.78V202.36C219.78 199.04 218.98 196.46 217.38 194.62C215.78 192.74 213.34 191.8 210.06 191.8C208.1 191.8 206.42 192.22 205.02 193.06C203.66 193.86 202.56 195.04 201.72 196.6V192.4H193.92V220H201.72V203.2C201.72 202.04 201.94 201.04 202.38 200.2C202.82 199.36 203.46 198.72 204.3 198.28C205.14 197.8 206.1 197.56 207.18 197.56C208.78 197.56 209.94 198.04 210.66 199C211.38 199.96 211.74 201.36 211.74 203.2ZM233.316 206.2C233.316 204.64 233.676 203.26 234.396 202.06C235.116 200.86 236.076 199.92 237.276 199.24C238.516 198.52 239.876 198.16 241.356 198.16C242.476 198.16 243.596 198.34 244.716 198.7C245.836 199.06 246.856 199.58 247.776 200.26C248.736 200.9 249.456 201.66 249.936 202.54V194.56C248.976 193.72 247.716 193.06 246.156 192.58C244.636 192.06 242.856 191.8 240.816 191.8C237.896 191.8 235.256 192.4 232.896 193.6C230.576 194.8 228.736 196.48 227.376 198.64C226.056 200.8 225.396 203.32 225.396 206.2C225.396 209.04 226.056 211.56 227.376 213.76C228.736 215.92 230.576 217.6 232.896 218.8C235.256 220 237.896 220.6 240.816 220.6C242.856 220.6 244.636 220.36 246.156 219.88C247.716 219.36 248.976 218.66 249.936 217.78V209.8C249.456 210.68 248.756 211.46 247.836 212.14C246.956 212.78 245.956 213.3 244.836 213.7C243.716 214.06 242.556 214.24 241.356 214.24C239.876 214.24 238.516 213.9 237.276 213.22C236.076 212.54 235.116 211.6 234.396 210.4C233.676 209.2 233.316 207.8 233.316 206.2ZM283.071 192.4H274.971L266.271 214.24L270.111 214.36L261.231 192.4H252.591L264.051 217.24L257.091 233.2H265.071L283.071 192.4Z" fill="white"/>
<defs>
<linearGradient id="paint0_linear_148_66" x1="109.217" y1="67.4" x2="290.742" y2="288.883" gradientUnits="userSpaceOnUse">
<stop stop-color="#850199"/>
<stop offset="1" stop-color="#97018F"/>
</linearGradient>
</defs>
</svg>
