<svg width="588" height="588" viewBox="0 0 588 588" fill="none" xmlns="http://www.w3.org/2000/svg">
<path d="M588 449.702H0V449.996H588V449.702Z" fill="#EBEBEB"/>
<path d="M529.082 468.624H490.133V468.918H529.082V468.624Z" fill="#EBEBEB"/>
<path d="M389.515 471.823H343.392V472.117H389.515V471.823Z" fill="#EBEBEB"/>
<path d="M488.957 457.711H421.902V458.005H488.957V457.711Z" fill="#EBEBEB"/>
<path d="M285.897 459.687H205.188V459.981H285.897V459.687Z" fill="#EBEBEB"/>
<path d="M303.808 459.687H296.364V459.981H303.808V459.687Z" fill="#EBEBEB"/>
<path d="M264.765 464.649H115.636V464.943H264.765V464.649Z" fill="#EBEBEB"/>
<path d="M278.712 397.253H51.6381C49.8593 397.25 48.1543 396.541 46.8975 395.282C45.6408 394.023 44.9349 392.317 44.9349 390.538V71.3361C44.9504 69.5674 45.6631 67.8763 46.9182 66.63C48.1733 65.3837 49.8694 64.683 51.6381 64.6799H278.712C280.493 64.6799 282.201 65.3874 283.46 66.6467C284.719 67.906 285.427 69.614 285.427 71.3949V390.538C285.427 392.319 284.719 394.027 283.46 395.286C282.201 396.545 280.493 397.253 278.712 397.253ZM51.6381 64.9151C49.9372 64.9182 48.3071 65.5961 47.1054 66.7999C45.9038 68.0038 45.2289 69.6352 45.2289 71.3361V390.538C45.2289 392.239 45.9038 393.87 47.1054 395.074C48.3071 396.278 49.9372 396.956 51.6381 396.959H278.712C280.414 396.956 282.045 396.278 283.249 395.075C284.452 393.871 285.13 392.24 285.133 390.538V71.3361C285.13 69.6341 284.452 68.0027 283.249 66.7992C282.045 65.5957 280.414 64.9182 278.712 64.9151H51.6381Z" fill="#EBEBEB"/>
<path d="M533.093 397.253H306.007C304.227 397.25 302.521 396.541 301.262 395.283C300.004 394.024 299.295 392.318 299.292 390.538V71.3361C299.311 69.5663 300.026 67.8752 301.283 66.6293C302.54 65.3833 304.237 64.6829 306.007 64.6799H533.093C534.859 64.6861 536.552 65.3882 537.805 66.6341C539.057 67.8801 539.769 69.5694 539.784 71.3361V390.538C539.784 392.315 539.08 394.019 537.826 395.278C536.571 396.536 534.869 397.246 533.093 397.253ZM306.007 64.9151C304.305 64.9182 302.674 65.5957 301.47 66.7992C300.267 68.0027 299.589 69.6341 299.586 71.3361V390.538C299.589 392.24 300.267 393.871 301.47 395.075C302.674 396.278 304.305 396.956 306.007 396.959H533.093C534.795 396.956 536.426 396.278 537.629 395.075C538.833 393.871 539.51 392.24 539.514 390.538V71.3361C539.51 69.6341 538.833 68.0027 537.629 66.7992C536.426 65.5957 534.795 64.9182 533.093 64.9151H306.007Z" fill="#EBEBEB"/>
<path d="M341.828 287.767V95.0913L83.4254 95.0913V287.767H341.828Z" fill="#EBEBEB"/>
<path d="M343.392 287.767V95.0913H341.828V287.767H343.392Z" fill="#E0E0E0"/>
<path d="M96.2086 274.96L329.033 274.96V107.863L96.2086 107.863L96.2086 274.96Z" fill="#F5F5F5"/>
<path d="M267.117 283.922H308.535V225.945H267.117V283.922Z" fill="white"/>
<path d="M206.365 263.518H247.771L250.747 205.541H209.34L206.365 263.518Z" fill="white"/>
<path d="M180.434 283.922H221.852V225.945H180.434V283.922Z" fill="white"/>
<path d="M119.682 263.518H161.1L164.076 205.541H122.669L119.682 263.518Z" fill="white"/>
<path d="M154.703 191.123L211.08 195.145L220.77 116.518L164.381 112.496L154.703 191.123Z" fill="white"/>
<path d="M290.225 160.359H331.632L334.619 102.383H293.2L290.225 160.359Z" fill="white"/>
<path d="M235.812 193.547L277.191 195.361L279.73 137.439L238.351 135.626L235.812 193.547Z" fill="white"/>
<path d="M90.7505 177.432L132.152 176.232L130.472 118.279L89.071 119.479L90.7505 177.432Z" fill="white"/>
<path d="M395.853 266.14H501.058V111.426H395.853V266.14Z" fill="#E0E0E0"/>
<path d="M389.515 266.14H498.189V111.426H389.515V266.14Z" fill="#F5F5F5"/>
<path d="M398.617 123.621V253.957H489.087V123.621H398.617Z" fill="white"/>
<path d="M455.112 195.087V205C452.155 205.002 449.227 204.421 446.495 203.29C443.762 202.16 441.28 200.502 439.188 198.412C437.097 196.321 435.438 193.84 434.306 191.108C433.174 188.376 432.592 185.448 432.592 182.492V172.566C438.564 172.566 444.293 174.939 448.516 179.162C452.739 183.386 455.112 189.114 455.112 195.087Z" fill="#F5F5F5"/>
<path d="M455.112 161.618V171.543C449.139 171.543 443.411 169.17 439.188 164.947C434.964 160.723 432.592 154.995 432.592 149.023V139.109C435.548 139.107 438.477 139.688 441.209 140.819C443.941 141.949 446.424 143.607 448.515 145.697C450.607 147.788 452.266 150.269 453.397 153.001C454.529 155.733 455.112 158.661 455.112 161.618Z" fill="#F5F5F5"/>
<path d="M455.112 228.544V238.469C449.139 238.469 443.411 236.097 439.188 231.873C434.964 227.65 432.592 221.922 432.592 215.949V206.023C438.564 206.023 444.293 208.396 448.516 212.62C452.739 216.843 455.112 222.571 455.112 228.544Z" fill="#F5F5F5"/>
<path d="M305.901 441.917H338.911V319.131H305.901V441.917Z" fill="#F0F0F0"/>
<path d="M106.84 449.702H328.269V441.917H106.84V449.702Z" fill="#F0F0F0"/>
<path d="M305.901 319.143H96.2203V441.929H305.901V319.143Z" fill="#F5F5F5"/>
<path d="M284.133 334.254H117.988V374.521H284.133V334.254Z" fill="#F0F0F0"/>
<path d="M284.133 386.539H117.988V426.806H284.133V386.539Z" fill="#F0F0F0"/>
<path d="M176.153 375.85H225.968C227.313 375.85 228.403 374.76 228.403 373.415V372.757C228.403 371.412 227.313 370.322 225.968 370.322H176.153C174.809 370.322 173.719 371.412 173.719 372.757V373.415C173.719 374.76 174.809 375.85 176.153 375.85Z" fill="#F5F5F5"/>
<path d="M176.153 428.146H225.968C227.313 428.146 228.403 427.056 228.403 425.712V425.053C228.403 423.709 227.313 422.619 225.968 422.619H176.153C174.809 422.619 173.719 423.709 173.719 425.053V425.712C173.719 427.056 174.809 428.146 176.153 428.146Z" fill="#F5F5F5"/>
<path d="M450.502 419.432C450.584 390.985 451.29 352.188 456.065 338.147L462.603 335.489C462.603 335.489 460.992 338.124 457.464 381.765C454.136 422.513 453.771 415.234 454.018 419.397C454.018 419.973 453.219 420.455 452.207 420.432C451.255 420.408 450.502 419.973 450.502 419.432Z" fill="#E6E6E6"/>
<path d="M446.751 331.714C437.284 323.847 416.633 317.955 394.901 317.532C386.363 317.367 411.094 336.124 427.829 345.168C440.259 351.894 453.971 357.998 457.346 365.16C456.464 350.177 456.288 339.57 446.751 331.714Z" fill="#E6E6E6"/>
<path d="M448.162 370.781C441.564 365.301 427.17 361.197 412.023 360.903C406.073 360.785 423.313 373.839 434.967 380.165C443.622 384.869 453.183 389.103 455.535 394.125C454.936 383.658 454.771 376.32 448.162 370.781Z" fill="#E6E6E6"/>
<path d="M466.202 351.624C477.044 342.91 500.306 336.512 524.719 336.242C534.292 336.148 512.63 355.375 489.71 364.242C473.81 370.44 457.346 381.024 453.36 389.091C454.771 372.274 455.359 360.385 466.202 351.624Z" fill="#E6E6E6"/>
<path d="M460.286 324.164C467.401 316.885 483.395 310.052 500.47 307.512C507.174 306.512 498.259 319.695 477.55 330.691C466.625 336.477 455.7 345.979 453.348 352.106C453.407 339.97 453.16 331.432 460.286 324.164Z" fill="#E6E6E6"/>
<path d="M434.05 414.646L435.779 448.244C435.8 448.636 435.969 449.006 436.254 449.277C436.538 449.548 436.915 449.7 437.307 449.702H475.292C475.685 449.7 476.062 449.548 476.346 449.277C476.63 449.006 476.8 448.636 476.821 448.244L478.55 414.646H434.05Z" fill="#F0F0F0"/>
<path d="M481.431 421.772H431.169L429.734 408.73H482.877L481.431 421.772Z" fill="#F0F0F0"/>
<path d="M294 514.57C419.929 514.57 522.015 508.61 522.015 501.258C522.015 493.906 419.929 487.946 294 487.946C168.071 487.946 65.9854 493.906 65.9854 501.258C65.9854 508.61 168.071 514.57 294 514.57Z" fill="#F5F5F5"/>
<path d="M448.491 96.4319L447.374 96.0556C448.067 93.9776 448.42 91.8015 448.421 89.6111H449.597C449.594 91.9291 449.221 94.2317 448.491 96.4319Z" fill="#9C14D9"/>
<path d="M447.562 83.7077C446.624 80.6031 444.974 77.76 442.745 75.4042C440.516 73.0484 437.768 71.2449 434.72 70.1367L435.12 69.0312C438.342 70.2006 441.246 72.1069 443.6 74.5979C445.954 77.0889 447.694 80.0958 448.679 83.3784L447.562 83.7077Z" fill="#9C14D9"/>
<path d="M445.481 89.6229C445.484 86.3656 444.592 83.17 442.902 80.3849C441.213 77.5998 438.791 75.3323 435.901 73.8299C433.011 72.3274 429.763 71.6478 426.513 71.8651C423.263 72.0823 420.135 73.1882 417.471 75.062C414.806 76.9358 412.708 79.5056 411.404 82.4907C410.101 85.4759 409.642 88.7617 410.079 91.9897C410.515 95.2177 411.83 98.2637 413.88 100.795C415.93 103.327 418.635 105.247 421.702 106.346L433.909 111.05L431.592 107.016C435.541 106.13 439.069 103.924 441.594 100.761C444.119 97.5989 445.49 93.6698 445.481 89.6229Z" fill="#9C14D9"/>
<path d="M400.24 100.995C400.238 98.608 400.891 96.2665 402.129 94.2257C403.367 92.185 405.142 90.5234 407.259 89.4224C409.377 88.3214 411.757 87.8233 414.138 87.9823C416.52 88.1414 418.812 88.9515 420.764 90.3244C422.717 91.6972 424.255 93.58 425.21 95.7672C426.166 97.9544 426.502 100.362 426.183 102.727C425.863 105.093 424.9 107.325 423.399 109.18C421.897 111.036 419.915 112.443 417.668 113.249L408.719 116.777L410.424 113.707C407.537 113.057 404.956 111.444 403.106 109.135C401.255 106.825 400.245 103.955 400.24 100.995Z" fill="#263238"/>
<path d="M469.506 139.25C464.579 143.601 454.112 146.824 448.091 146.306C445.022 166.04 461.521 181.751 461.521 181.751C461.521 181.751 482.607 173.107 486.899 153.597C481.102 151.904 472.517 145.095 469.506 139.25Z" fill="#9C14D9"/>
<path opacity="0.3" d="M450.702 149.234C449.773 162.876 458.711 174.307 462.191 178.199C466.895 175.847 479.314 168.427 483.359 155.385C477.623 152.6 472.612 148.522 468.718 143.472C463.24 146.762 457.073 148.734 450.702 149.234Z" fill="white"/>
<path d="M249.959 85.2953L266.046 68.1963L287.356 78.0159L249.959 85.2953Z" fill="#9C14D9"/>
<path d="M287.362 78.0238L249.961 85.3006C248.246 85.6343 247.126 87.295 247.46 89.01L251.487 109.708C251.821 111.423 253.481 112.542 255.196 112.209L292.597 104.932C294.312 104.598 295.432 102.937 295.098 101.222L291.071 80.5249C290.738 78.8099 289.077 77.6902 287.362 78.0238Z" fill="#9C14D9"/>
<path opacity="0.4" d="M249.959 85.2953L271.28 95.1032L287.356 78.0159L249.959 85.2953Z" fill="black"/>
<path d="M250.347 72.2534L255.698 87.9295L271.28 95.1031L283.839 81.7555L277.43 62.9983L250.347 72.2534Z" fill="#9C14D9"/>
<g opacity="0.7">
<path d="M250.347 72.2534L255.698 87.9295L271.28 95.1031L283.839 81.7555L277.43 62.9983L250.347 72.2534Z" fill="white"/>
</g>
<path d="M247.913 140.285L245.796 140.167C245.357 139.486 244.848 138.851 244.279 138.274L244.632 136.181L239.445 133.323L237.87 134.734C237.072 134.568 236.261 134.477 235.447 134.464L234.271 132.735L228.579 134.382L228.462 136.51C227.773 136.945 227.135 137.454 226.556 138.027L224.475 137.663L221.617 142.86L223.017 144.425C222.849 145.225 222.758 146.041 222.746 146.859L221.029 148.035L222.676 153.727L224.781 153.844C225.224 154.526 225.732 155.164 226.298 155.749L225.945 157.831L231.143 160.689L232.707 159.277C233.508 159.445 234.323 159.535 235.141 159.548L236.317 161.277L242.009 159.63L242.115 157.513C242.795 157.063 243.433 156.551 244.02 155.985L246.102 156.337L248.959 151.151L247.536 149.575C247.709 148.803 247.803 148.015 247.818 147.223L249.547 146.047L247.913 140.285ZM236.905 152.68C235.788 153.001 234.601 152.984 233.494 152.631C232.386 152.278 231.409 151.604 230.684 150.696C229.959 149.787 229.52 148.684 229.422 147.526C229.323 146.368 229.57 145.207 230.132 144.189C230.693 143.171 231.544 142.343 232.576 141.808C233.608 141.273 234.775 141.057 235.93 141.185C237.085 141.313 238.176 141.781 239.066 142.529C239.955 143.278 240.603 144.273 240.927 145.389C241.143 146.132 241.21 146.91 241.124 147.679C241.039 148.447 240.803 149.192 240.429 149.869C240.055 150.546 239.552 151.143 238.947 151.626C238.343 152.108 237.649 152.466 236.905 152.68Z" fill="#9C14D9"/>
<path d="M220.112 137.263L218.818 137.192C218.553 136.767 218.241 136.373 217.889 136.016L218.113 134.734L214.937 132.982L213.961 133.852C213.479 133.745 212.986 133.689 212.491 133.688L211.739 132.629L208.211 133.641L208.14 134.934C207.715 135.2 207.321 135.511 206.964 135.863L205.682 135.64L203.93 138.815L204.789 139.779C204.691 140.271 204.636 140.771 204.624 141.273L203.577 142.014L204.577 145.542L205.871 145.612C206.148 146.032 206.463 146.426 206.811 146.788L206.588 148.058L209.763 149.811L210.727 148.952C211.22 149.049 211.719 149.104 212.221 149.117L212.962 150.175L216.49 149.164L216.56 147.87C216.98 147.597 217.373 147.286 217.736 146.941L219.006 147.153L220.759 143.978L219.888 143.013C219.995 142.526 220.054 142.03 220.065 141.531L221.111 140.779L220.112 137.263ZM214.032 147C212.914 147.326 211.724 147.312 210.614 146.961C209.504 146.61 208.523 145.937 207.795 145.028C207.068 144.118 206.627 143.014 206.528 141.853C206.429 140.693 206.677 139.53 207.241 138.51C207.804 137.491 208.657 136.662 209.692 136.129C210.727 135.595 211.897 135.38 213.054 135.513C214.211 135.645 215.303 136.117 216.191 136.871C217.079 137.624 217.723 138.624 218.042 139.744C218.468 141.238 218.285 142.839 217.533 144.199C216.782 145.558 215.523 146.565 214.032 147Z" fill="#263238"/>
<path d="M345.568 113.343C340.111 112.32 337.794 115.695 337.971 120.517C338.147 125.338 334.372 132.277 339.147 133.206C343.921 134.135 351.459 114.437 345.568 113.343Z" fill="#263238"/>
<path d="M325.47 359.856C341.816 313.169 354.199 252.44 354.199 252.44L309.429 251.711C309.429 251.711 302.538 328.445 298.704 361.032C294.694 394.913 280.982 470.071 280.982 470.071L300.633 475.622C300.633 475.622 322.706 402.016 325.47 359.856Z" fill="#263238"/>
<path opacity="0.2" d="M333.984 286.168C333.984 286.168 332.679 322.024 331.079 342.769C335.289 329.304 339.111 315.462 342.381 302.785L333.984 286.168Z" fill="black"/>
<path d="M294.118 490.31L292.436 499.882C292.387 500.119 292.289 500.343 292.151 500.541C292.012 500.739 291.834 500.906 291.628 501.032C291.422 501.159 291.192 501.242 290.953 501.277C290.714 501.312 290.47 501.297 290.237 501.235C287.332 500.412 286.133 499.565 281.088 498.06C275.208 496.284 269.951 495.625 263.036 493.555C258.849 492.297 260.684 487.193 264.212 487.229C271.668 487.311 275.89 484.688 279.782 483.559C281.652 480.478 284.145 468.895 284.145 468.895L299.974 474.551C299.974 474.551 295.352 485.406 294.118 490.31Z" fill="#9C14D9"/>
<path d="M281.064 472.94L299.045 478.326C299.409 478.43 299.799 478.399 300.142 478.24C300.485 478.08 300.76 477.802 300.915 477.456L303.573 471.658C303.665 471.466 303.716 471.257 303.721 471.044C303.726 470.831 303.685 470.619 303.602 470.423C303.518 470.227 303.394 470.051 303.237 469.907C303.079 469.763 302.893 469.655 302.691 469.589L283.204 463.415C282.989 463.352 282.764 463.335 282.542 463.364C282.32 463.394 282.106 463.47 281.916 463.588C281.725 463.705 281.561 463.862 281.435 464.047C281.308 464.231 281.222 464.441 281.182 464.661L280.006 471.247C279.942 471.61 280.015 471.984 280.21 472.296C280.406 472.609 280.71 472.838 281.064 472.94Z" fill="#263238"/>
<path opacity="0.1" d="M281.064 472.94L299.045 478.326C299.409 478.43 299.799 478.399 300.142 478.24C300.485 478.08 300.76 477.802 300.915 477.456L303.573 471.658C303.665 471.466 303.716 471.257 303.721 471.044C303.726 470.831 303.685 470.619 303.602 470.423C303.518 470.227 303.394 470.051 303.237 469.907C303.079 469.763 302.893 469.655 302.691 469.589L283.204 463.415C282.989 463.352 282.764 463.335 282.542 463.364C282.32 463.394 282.106 463.47 281.916 463.588C281.725 463.705 281.561 463.862 281.435 464.047C281.308 464.231 281.222 464.441 281.182 464.661L280.006 471.247C279.942 471.61 280.015 471.984 280.21 472.296C280.406 472.609 280.71 472.838 281.064 472.94Z" fill="white"/>
<path d="M375.426 497.93L373.592 489.698C373.027 484.688 373.404 473.081 373.404 473.081L357.598 473.481C357.598 473.481 358.774 484.065 358.715 487.793C355.681 489.922 352.635 492.897 346.062 494.849C342.969 495.755 343.263 501.117 347.355 501.188C354.141 501.305 358.95 500.517 364.736 500.623C369.676 500.706 370.252 501.188 373.086 501.188C373.477 501.185 373.862 501.09 374.209 500.91C374.557 500.731 374.857 500.472 375.085 500.154C375.313 499.837 375.463 499.47 375.522 499.083C375.581 498.697 375.549 498.302 375.426 497.93Z" fill="#9C14D9"/>
<path d="M369.887 357.057C368.523 308.759 373.944 280.97 366.83 252.675L326.105 252.064C326.105 252.064 337.006 328.692 342.357 360.609C347.708 392.525 355.293 473.117 355.293 473.117L375.285 473.364C375.285 473.364 377.602 394.431 369.887 357.057Z" fill="#263238"/>
<path d="M355.74 476.704L374.65 476.998C375.057 477.015 375.455 476.878 375.765 476.614C376.074 476.35 376.273 475.979 376.32 475.575L376.967 469.318C376.991 469.116 376.974 468.912 376.914 468.717C376.855 468.522 376.756 468.342 376.623 468.188C376.49 468.035 376.327 467.91 376.143 467.823C375.959 467.736 375.759 467.689 375.556 467.684L354.964 467.049C354.732 467.043 354.501 467.088 354.288 467.18C354.075 467.273 353.884 467.41 353.73 467.584C353.576 467.757 353.461 467.962 353.394 468.185C353.326 468.407 353.308 468.641 353.341 468.871L354.364 475.457C354.413 475.792 354.577 476.1 354.828 476.328C355.079 476.555 355.402 476.688 355.74 476.704Z" fill="#263238"/>
<path opacity="0.1" d="M355.74 476.704L374.65 476.998C375.057 477.015 375.455 476.878 375.765 476.614C376.074 476.35 376.273 475.979 376.32 475.575L376.967 469.318C376.991 469.116 376.974 468.912 376.914 468.717C376.855 468.522 376.756 468.342 376.623 468.188C376.49 468.035 376.327 467.91 376.143 467.823C375.959 467.736 375.759 467.689 375.556 467.684L354.964 467.049C354.732 467.043 354.501 467.088 354.288 467.18C354.075 467.273 353.884 467.41 353.73 467.584C353.576 467.757 353.461 467.962 353.394 468.185C353.326 468.407 353.308 468.641 353.341 468.871L354.364 475.457C354.413 475.792 354.577 476.1 354.828 476.328C355.079 476.555 355.402 476.688 355.74 476.704Z" fill="white"/>
<path d="M323.541 163.523H323.4L304.325 162.076C298.963 161.637 293.628 161.128 288.32 160.548C287.652 159.369 287.055 158.152 286.532 156.902C285.47 154.336 284.586 151.699 283.886 149.011C283.146 146.247 282.534 143.378 282.017 140.473C281.499 137.569 281.064 134.593 280.699 131.712V131.477C280.573 130.518 280.109 129.635 279.39 128.987C278.672 128.34 277.746 127.969 276.779 127.942C275.812 127.915 274.867 128.234 274.113 128.841C273.36 129.447 272.847 130.303 272.667 131.253C272.102 134.515 271.764 137.812 271.656 141.12C271.514 144.438 271.588 147.761 271.879 151.069C272.184 154.509 272.782 157.916 273.667 161.253C274.623 164.868 276.08 168.331 277.995 171.543C278.467 172.318 279.092 172.989 279.832 173.514C280.572 174.04 281.412 174.41 282.299 174.601L282.875 174.718C286.168 175.424 289.472 176.106 292.777 176.635C296.082 177.164 299.386 177.705 302.702 178.129C306.019 178.552 309.335 178.905 312.663 179.199C315.991 179.493 319.272 179.705 322.741 179.799C324.843 179.816 326.871 179.021 328.4 177.58C329.93 176.138 330.843 174.161 330.95 172.061C331.056 169.962 330.347 167.903 328.971 166.314C327.594 164.725 325.658 163.729 323.565 163.535L323.541 163.523Z" fill="#FF8B7B"/>
<path d="M335.536 164.64C325.229 162.684 314.802 161.419 304.325 160.854C302.288 169.199 302.446 177.93 304.784 186.196C304.784 186.196 309.429 188.548 322.612 186.925C337.347 185.02 347.943 167.169 335.536 164.64Z" fill="#9C14D9"/>
<path d="M369.899 169.003C358.856 166.384 347.575 164.898 336.23 164.57C323.953 164.323 314.345 170.391 312.005 182.456C307.397 206.61 306.119 231.28 308.206 255.78C308.3 260.143 363.619 259.767 368.182 255.78C370.17 240.198 367.982 223.499 378.202 188.619C380.295 181.445 377.096 170.72 369.899 169.003Z" fill="#9C14D9"/>
<path d="M336.783 181.104C336.548 182.115 335.924 182.833 335.383 182.703C334.843 182.574 334.607 181.657 334.843 180.645C335.078 179.634 335.701 178.917 336.242 179.046C336.783 179.175 337.018 180.14 336.783 181.104Z" fill="white"/>
<path d="M431.78 152.363C432.159 148.876 432.288 145.366 432.168 141.861C432.126 140.838 431.72 139.863 431.023 139.112C430.327 138.361 429.385 137.883 428.368 137.764C427.351 137.645 426.324 137.893 425.473 138.463C424.622 139.033 424.002 139.887 423.725 140.873L423.654 141.12C422.843 144.013 421.949 147.153 420.949 150.093C419.95 153.033 418.891 155.973 417.68 158.748C416.542 161.463 415.217 164.096 413.717 166.628C412.975 167.85 412.162 169.028 411.282 170.156C405.638 169.96 399.969 169.681 394.277 169.321L374.074 167.933H373.968C371.691 167.722 369.424 168.425 367.665 169.886C365.906 171.347 364.8 173.447 364.589 175.724C364.379 178.001 365.081 180.268 366.543 182.027C368.004 183.786 370.104 184.892 372.38 185.103C376.026 185.538 379.436 185.796 383.023 186.02C386.61 186.243 390.079 186.361 393.607 186.408C397.135 186.455 400.663 186.408 404.191 186.408C407.719 186.408 411.306 186.138 414.869 185.902H415.504C416.462 185.837 417.395 185.577 418.249 185.138C419.102 184.699 419.857 184.091 420.467 183.35C422.961 180.279 425.008 176.87 426.547 173.225C427.99 169.87 429.139 166.395 429.981 162.841C430.811 159.392 431.413 155.891 431.78 152.363Z" fill="#FF8B7B"/>
<path d="M361.244 167.168C372.339 166.689 383.453 166.952 394.513 167.956C395.385 177.01 393.894 186.135 390.185 194.44C390.185 194.44 384.952 196.216 371.369 192.488C356.234 188.313 347.849 167.98 361.244 167.168Z" fill="#9C14D9"/>
<path d="M430.087 147L439.307 140.215L428.605 131.536C428.605 131.536 421.008 138.768 424.054 143.472L430.087 147Z" fill="#FF8B7B"/>
<path d="M441.317 128.184L437.072 125.832C436.253 125.373 435.295 125.228 434.377 125.425C433.459 125.623 432.644 126.148 432.086 126.902L428.558 131.512L439.259 140.191L442.787 133.794C443.329 132.853 443.479 131.737 443.203 130.687C442.928 129.637 442.251 128.738 441.317 128.184Z" fill="#FF8B7B"/>
<path d="M442.282 196.451C441.895 195.446 441.126 194.635 440.144 194.195C439.161 193.754 438.045 193.72 437.037 194.099H436.896C434.12 195.145 431.192 196.263 428.346 197.262C425.5 198.262 422.619 199.261 419.761 200.132C416.904 201.002 414.058 201.766 411.259 202.484C409.671 202.836 408.096 203.13 406.555 203.354C402.635 199.724 398.715 196.016 394.795 192.229L381.189 178.752L381.106 178.67C379.582 177.225 377.558 176.425 375.458 176.436C373.357 176.447 371.343 177.269 369.833 178.73C368.324 180.19 367.437 182.177 367.357 184.276C367.278 186.375 368.011 188.424 369.405 189.995C371.757 192.546 374.109 194.863 376.461 197.203C378.813 199.544 381.294 201.802 383.811 204.012C386.328 206.223 388.844 208.399 391.443 210.516C394.042 212.633 396.712 214.702 399.405 216.725L399.922 217.125C400.644 217.657 401.467 218.036 402.341 218.238C403.215 218.44 404.12 218.462 405.003 218.301C408.467 217.652 411.869 216.712 415.175 215.49C418.311 214.321 421.381 212.982 424.371 211.48C427.311 209.99 430.161 208.383 432.921 206.658C435.708 204.944 438.404 203.088 441 201.096C441.679 200.558 442.169 199.818 442.4 198.983C442.63 198.148 442.589 197.261 442.282 196.451Z" fill="#FF8B7B"/>
<path d="M373.392 170.379C381.633 176.868 389.431 183.901 396.735 191.429C391.784 198.447 385.099 204.063 377.331 207.729C377.331 207.729 372.486 205.777 365.077 194.793C356.787 182.433 363.29 162.711 373.392 170.379Z" fill="#9C14D9"/>
<path d="M440.553 201.343L450.82 197.815L443.199 187.231C443.199 187.231 434.485 191.935 436.143 197.051L440.553 201.343Z" fill="#FF8B7B"/>
<path d="M455.359 187.49L452.078 184.267C451.447 183.648 450.611 183.279 449.728 183.232C448.844 183.184 447.974 183.46 447.28 184.009L442.964 187.36L450.784 197.78L455.383 192.958C456.095 192.225 456.492 191.242 456.488 190.219C456.484 189.197 456.078 188.217 455.359 187.49Z" fill="#FF8B7B"/>
<path d="M338.688 174.812C340.338 176.795 341.248 179.289 341.263 181.868C352.188 179.999 361.255 174.577 362.431 167.333C360.585 165.593 359.362 165.898 359.362 165.898C359.362 165.898 351.847 172.378 338.688 174.812Z" fill="white"/>
<path d="M338.688 174.813C335.745 175.321 333.059 176.809 331.068 179.034C326.869 174.954 332.338 166.204 335.689 164.558C337.155 164.135 338.694 164.027 340.205 164.24C340.205 164.24 335.56 166.722 338.688 174.813Z" fill="white"/>
<path d="M361.267 140.462C359.162 147.141 356.504 158.831 359.186 165.546C359.511 166.354 359.554 167.249 359.309 168.085C359.063 168.921 358.544 169.651 357.833 170.156C352.88 173.919 346.711 175.719 340.511 175.212C333.525 174.636 333.09 171.014 334.49 167.945C334.86 167.171 335.399 166.49 336.066 165.95C336.733 165.411 337.513 165.028 338.347 164.828C345.403 163.1 345.72 157.149 344.944 151.41L361.267 140.462Z" fill="#FF8B7B"/>
<path opacity="0.2" d="M354.611 144.93L344.956 151.41C345.168 152.862 345.258 154.33 345.227 155.797C348.602 155.714 353.588 152.598 354.329 149.164C354.681 147.782 354.777 146.347 354.611 144.93Z" fill="black"/>
<path d="M367.418 130.536C364.066 140.732 362.62 146.859 356.022 150.905C346.097 156.996 334.619 149.188 334.854 138.274C335.089 128.443 340.523 113.437 351.695 111.755C354.134 111.355 356.636 111.597 358.953 112.457C361.271 113.318 363.324 114.767 364.911 116.663C366.498 118.558 367.564 120.834 368.003 123.267C368.443 125.7 368.241 128.205 367.418 130.536Z" fill="#FF8B7B"/>
<path d="M338.688 132.559C338.22 132.556 337.755 132.477 337.312 132.324C336.543 132.01 335.863 131.511 335.334 130.87C334.804 130.23 334.442 129.469 334.278 128.654C333.845 126.667 333.975 124.597 334.655 122.679C335.334 120.762 336.535 119.072 338.123 117.8C338.743 117.235 339.505 116.848 340.327 116.682C341.15 116.516 342.002 116.576 342.792 116.856C343.583 117.136 344.283 117.626 344.817 118.273C345.352 118.919 345.7 119.699 345.826 120.528C346.3 122.516 346.169 124.601 345.45 126.514C344.215 130.124 341.393 132.559 338.688 132.559ZM341.393 117.2C340.329 117.233 339.303 117.604 338.465 118.259C336.962 119.458 335.826 121.055 335.184 122.867C334.541 124.679 334.419 126.635 334.831 128.513C334.97 129.237 335.287 129.914 335.753 130.485C336.219 131.056 336.819 131.502 337.5 131.783C340.181 132.735 343.51 130.289 344.921 126.314C345.595 124.514 345.722 122.554 345.285 120.681C345.142 119.956 344.822 119.278 344.355 118.706C343.887 118.133 343.286 117.685 342.604 117.4C342.23 117.268 341.836 117.201 341.44 117.2H341.393Z" fill="#263238"/>
<path d="M350.718 136.804C350.25 136.808 349.784 136.729 349.343 136.569C346.367 135.511 345.168 131.183 346.685 126.926C347.327 124.989 348.535 123.288 350.154 122.045C350.782 121.503 351.543 121.137 352.358 120.984C353.174 120.83 354.015 120.896 354.798 121.173C355.58 121.45 356.275 121.929 356.812 122.561C357.349 123.194 357.71 123.957 357.857 124.774C358.331 126.762 358.2 128.846 357.481 130.76C356.199 134.382 353.365 136.804 350.718 136.804ZM353.423 121.446C352.357 121.486 351.33 121.855 350.483 122.504C348.961 123.683 347.823 125.287 347.214 127.114C345.815 131.077 346.849 135.087 349.566 136.04C352.283 136.992 355.575 134.535 356.987 130.571C357.663 128.767 357.786 126.801 357.339 124.927C357.198 124.203 356.881 123.525 356.415 122.952C355.949 122.38 355.35 121.931 354.67 121.646C354.268 121.511 353.847 121.443 353.423 121.446Z" fill="#263238"/>
<path d="M346.92 127.302C346.84 127.299 346.764 127.265 346.708 127.208C346.548 126.995 346.329 126.833 346.079 126.742C345.829 126.65 345.557 126.632 345.297 126.691C345.225 126.71 345.149 126.701 345.084 126.666C345.018 126.631 344.969 126.573 344.944 126.502C344.921 126.431 344.927 126.353 344.96 126.285C344.993 126.217 345.05 126.164 345.121 126.138C345.489 126.05 345.875 126.069 346.233 126.192C346.591 126.314 346.907 126.536 347.143 126.832C347.194 126.886 347.222 126.958 347.222 127.032C347.222 127.106 347.194 127.177 347.143 127.232C347.114 127.259 347.078 127.28 347.04 127.292C347.001 127.305 346.96 127.308 346.92 127.302Z" fill="#263238"/>
<path d="M365.395 136.31C365.341 136.327 365.284 136.327 365.23 136.31C359.256 131.994 356.998 131.489 356.998 131.489C356.923 131.475 356.857 131.431 356.814 131.369C356.771 131.306 356.755 131.228 356.769 131.153C356.783 131.079 356.826 131.012 356.889 130.969C356.952 130.926 357.029 130.91 357.104 130.924C357.198 130.924 359.456 131.418 365.583 135.852C365.644 135.896 365.685 135.963 365.699 136.037C365.712 136.112 365.696 136.188 365.654 136.251C365.618 136.28 365.576 136.3 365.531 136.31C365.486 136.32 365.44 136.32 365.395 136.31Z" fill="#263238"/>
<path d="M360.609 139.18C356.61 135.452 360.468 131.289 362.961 129.772C365.701 128.078 361.573 126.114 364.936 121.998C351.295 122.328 354.211 116.013 347.014 116.753C343.086 117.153 339.158 113.684 339.652 108.145C340.581 97.6787 355.552 95.3149 357.927 99.2428C352.294 100.242 353.482 103.7 355.952 103.947C362.373 104.476 361.138 107.745 364.548 110.815C369.393 115.166 375.356 111.403 374.603 120.493C384.129 122.845 378.848 133.429 372.804 136.251C368.91 137.838 364.798 138.825 360.609 139.18Z" fill="#263238"/>
<path d="M371.322 120.317C372.279 120.329 373.228 120.136 374.105 119.751C374.982 119.366 375.766 118.798 376.406 118.086C377.045 117.373 377.524 116.532 377.812 115.618C378.099 114.705 378.188 113.741 378.072 112.79C381.647 119.493 377.308 121.599 371.322 120.317Z" fill="#263238"/>
<path d="M368.464 141.555C366.67 143.398 364.257 144.513 361.691 144.683C358.48 144.801 358.092 141.555 360.009 138.803C361.738 136.287 365.501 133.194 368.241 134.405C370.981 135.617 370.793 139.215 368.464 141.555Z" fill="#FF8B7B"/>
<path d="M368.17 142.837C366.618 144.378 364.372 144.66 363.172 143.449C361.973 142.237 362.267 140.015 363.831 138.462C365.395 136.91 367.629 136.628 368.829 137.839C370.028 139.05 369.734 141.285 368.17 142.837Z" fill="#263238"/>
<path d="M344.203 146.553C343.889 146.323 343.646 146.009 343.502 145.648C343.357 145.286 343.317 144.891 343.385 144.508C343.454 144.125 343.628 143.768 343.889 143.479C344.15 143.19 344.487 142.98 344.861 142.873C345.236 142.766 345.633 142.766 346.007 142.873C346.381 142.98 346.718 143.19 346.979 143.479C347.24 143.768 347.415 144.125 347.483 144.508C347.552 144.891 347.512 145.286 347.367 145.648C347.063 146.182 346.561 146.576 345.97 146.746C345.379 146.915 344.744 146.846 344.203 146.553Z" fill="#263238"/>
<path d="M351.401 145.883C349.377 145.9 347.357 145.691 345.379 145.26C345.302 145.242 345.229 145.209 345.165 145.163C345.1 145.117 345.045 145.059 345.003 144.992C344.961 144.925 344.933 144.85 344.92 144.772C344.907 144.694 344.909 144.614 344.927 144.536C344.944 144.459 344.977 144.386 345.023 144.322C345.069 144.257 345.127 144.202 345.195 144.16C345.262 144.118 345.336 144.09 345.415 144.077C345.493 144.063 345.573 144.066 345.65 144.084C351.424 145.459 360.762 144.542 364.137 141.308C364.191 141.253 364.256 141.209 364.328 141.179C364.4 141.15 364.476 141.134 364.554 141.134C364.632 141.134 364.709 141.15 364.78 141.179C364.852 141.209 364.917 141.253 364.972 141.308C365.026 141.362 365.07 141.426 365.1 141.497C365.129 141.567 365.145 141.643 365.145 141.72C365.145 141.796 365.129 141.872 365.1 141.943C365.07 142.014 365.026 142.078 364.972 142.131C362.373 144.648 356.669 145.883 351.401 145.883Z" fill="#263238"/>
<path d="M351.154 129.36C350.871 130.183 350.213 130.712 349.672 130.536C349.131 130.36 348.931 129.56 349.213 128.737C349.495 127.914 350.166 127.384 350.695 127.561C351.224 127.737 351.436 128.478 351.154 129.36Z" fill="#263238"/>
<path d="M341.04 125.832C340.758 126.655 340.099 127.185 339.558 127.008C339.017 126.832 338.817 126.032 339.1 125.209C339.382 124.386 340.052 123.857 340.581 124.033C341.111 124.209 341.369 125.009 341.04 125.832Z" fill="#263238"/>
<path d="M344.744 128.572C342.204 129.891 339.742 131.356 337.371 132.959C337.959 134.946 341.052 135.652 341.052 135.652L344.744 128.572Z" fill="#FF5652"/>
<path d="M342.216 139.321C343.145 139.62 344.125 139.729 345.097 139.64C346.069 139.551 347.013 139.266 347.873 138.803C347.932 138.769 347.975 138.713 347.992 138.646C348.01 138.58 348.001 138.51 347.967 138.451C347.93 138.393 347.873 138.353 347.807 138.337C347.741 138.322 347.672 138.333 347.614 138.368C346.658 138.869 345.598 139.137 344.519 139.151C343.44 139.166 342.373 138.926 341.405 138.451C341.344 138.422 341.274 138.418 341.21 138.44C341.146 138.462 341.094 138.508 341.064 138.568C341.047 138.597 341.037 138.629 341.034 138.663C341.03 138.696 341.034 138.729 341.044 138.761C341.053 138.793 341.07 138.823 341.091 138.848C341.113 138.874 341.139 138.894 341.169 138.909C341.509 139.068 341.859 139.205 342.216 139.321Z" fill="#263238"/>
<path d="M356.093 127.89C356.177 127.914 356.267 127.914 356.352 127.89C356.416 127.87 356.476 127.837 356.528 127.794C356.58 127.75 356.622 127.697 356.653 127.636C356.684 127.576 356.702 127.51 356.707 127.443C356.712 127.375 356.703 127.307 356.681 127.243C356.448 126.478 356.032 125.781 355.468 125.213C354.905 124.645 354.211 124.224 353.447 123.986C353.313 123.953 353.171 123.975 353.053 124.045C352.934 124.115 352.848 124.229 352.812 124.362C352.78 124.491 352.8 124.628 352.868 124.743C352.936 124.857 353.047 124.94 353.176 124.974C353.78 125.17 354.326 125.511 354.768 125.966C355.211 126.42 355.536 126.976 355.717 127.584C355.749 127.663 355.8 127.732 355.866 127.785C355.931 127.839 356.009 127.875 356.093 127.89Z" fill="#263238"/>
<path d="M339.135 121.269C339.209 121.309 339.292 121.33 339.376 121.33C339.46 121.33 339.543 121.309 339.617 121.269C340.171 120.948 340.795 120.763 341.435 120.73C342.075 120.698 342.714 120.818 343.298 121.081C343.418 121.144 343.558 121.157 343.688 121.117C343.818 121.078 343.927 120.989 343.992 120.869C344.027 120.813 344.05 120.75 344.059 120.684C344.069 120.618 344.064 120.551 344.047 120.487C344.029 120.423 343.998 120.364 343.956 120.312C343.915 120.26 343.863 120.218 343.804 120.187C343.064 119.833 342.248 119.665 341.428 119.698C340.608 119.73 339.809 119.963 339.1 120.376C339.018 120.419 338.95 120.483 338.903 120.562C338.856 120.64 338.831 120.731 338.831 120.822C338.831 120.914 338.856 121.005 338.903 121.083C338.95 121.162 339.018 121.226 339.1 121.269H339.135Z" fill="#263238"/>
<path d="M274.572 135.24L266.423 128.184L277.171 120.858C277.171 120.858 283.781 128.219 280.535 132.5L274.572 135.24Z" fill="#FF8B7B"/>
<path d="M265.47 116.695L269.645 114.766C270.451 114.4 271.363 114.339 272.211 114.594C273.058 114.85 273.785 115.404 274.255 116.154L277.171 120.775L266.423 128.102L263.589 121.822C263.163 120.892 263.122 119.831 263.475 118.871C263.827 117.911 264.544 117.129 265.47 116.695Z" fill="#FF8B7B"/>
<path d="M322.33 184.044C321.89 183.094 321.267 182.241 320.496 181.533C319.725 180.825 318.821 180.277 317.838 179.92C316.854 179.562 315.809 179.403 314.764 179.451C313.718 179.499 312.693 179.753 311.746 180.199L311.381 180.363L309.594 181.198L307.653 182.08C306.336 182.645 305.007 183.256 303.667 183.762C300.997 184.938 298.281 185.867 295.552 186.819C292.824 187.772 290.06 188.607 287.32 189.348C284.898 190.006 282.463 190.524 280.017 190.994C277.901 190.453 275.666 189.736 273.432 188.924C270.621 187.901 267.763 186.714 264.918 185.467C262.072 184.22 259.202 182.903 256.344 181.563L247.771 177.482H247.689C246.828 177.078 245.85 176.997 244.934 177.252C244.018 177.508 243.223 178.083 242.695 178.875C242.167 179.666 241.94 180.62 242.056 181.565C242.172 182.509 242.623 183.38 243.326 184.021C245.843 186.29 248.406 188.313 251.052 190.324C253.698 192.335 256.427 194.216 259.284 196.027C262.129 197.876 265.065 199.58 268.081 201.131C271.273 202.801 274.602 204.198 278.03 205.306C278.724 205.512 279.449 205.587 280.17 205.53H280.664C284.014 205.29 287.348 204.858 290.648 204.236C292.307 203.954 293.906 203.566 295.541 203.213C297.175 202.86 298.751 202.401 300.339 201.919C303.526 201.014 306.642 199.932 309.747 198.721C311.275 198.109 312.816 197.545 314.321 196.78C315.074 196.427 315.838 196.086 316.591 195.71C317.344 195.334 318.049 194.969 318.943 194.463C320.736 193.492 322.087 191.87 322.718 189.93C323.348 187.991 323.209 185.884 322.33 184.044Z" fill="#FF8B7B"/>
<path d="M321.53 174.048C311.866 177.419 302.437 181.43 293.306 186.055C295.653 194.089 300.036 201.381 306.03 207.223C306.03 207.223 311.123 206.964 321.46 199.156C333.031 190.512 333.29 170.214 321.53 174.048Z" fill="#9C14D9"/>
<path d="M245.608 185.091L235.106 184.079L239.469 172.155C239.469 172.155 248.877 174.248 248.748 179.493L245.608 185.091Z" fill="#FF8B7B"/>
<path d="M227.862 175.565L230.084 171.673C230.51 170.918 231.198 170.347 232.018 170.067C232.838 169.787 233.732 169.819 234.53 170.156L239.469 172.155L235.106 184.079L229.32 180.704C228.449 180.212 227.808 179.396 227.535 178.434C227.262 177.472 227.379 176.441 227.862 175.565Z" fill="#FF8B7B"/>
<path d="M480.866 284.004H107.134C106.329 284.004 105.557 283.684 104.988 283.115C104.419 282.546 104.1 281.775 104.1 280.97C104.098 280.57 104.175 280.175 104.327 279.805C104.479 279.436 104.702 279.1 104.984 278.817C105.266 278.534 105.601 278.309 105.97 278.156C106.339 278.003 106.734 277.924 107.134 277.924H480.866C481.266 277.924 481.661 278.003 482.03 278.156C482.399 278.309 482.734 278.534 483.016 278.817C483.298 279.1 483.521 279.436 483.673 279.805C483.825 280.175 483.902 280.57 483.9 280.97C483.9 281.775 483.581 282.546 483.012 283.115C482.443 283.684 481.671 284.004 480.866 284.004Z" fill="#9C14D9"/>
<path d="M415.986 255.392H401.251C400.394 255.392 399.699 256.087 399.699 256.944V276.384C399.699 277.241 400.394 277.936 401.251 277.936H415.986C416.844 277.936 417.539 277.241 417.539 276.384V256.944C417.539 256.087 416.844 255.392 415.986 255.392Z" fill="#9C14D9"/>
<path d="M417.539 274.749C415.938 274.751 414.373 274.279 413.041 273.391C411.708 272.503 410.67 271.241 410.055 269.762C409.441 268.284 409.279 266.657 409.59 265.087C409.901 263.517 410.671 262.074 411.802 260.941C412.933 259.808 414.374 259.037 415.944 258.723C417.514 258.41 419.141 258.57 420.621 259.182C422.1 259.794 423.364 260.831 424.254 262.162C425.143 263.493 425.618 265.057 425.618 266.658C425.615 268.801 424.763 270.855 423.249 272.372C421.735 273.888 419.682 274.743 417.539 274.749ZM417.539 260.931C416.403 260.929 415.292 261.263 414.346 261.893C413.4 262.523 412.663 263.419 412.227 264.468C411.791 265.517 411.677 266.672 411.898 267.786C412.119 268.901 412.666 269.924 413.469 270.728C414.272 271.531 415.296 272.078 416.41 272.299C417.525 272.52 418.68 272.405 419.729 271.97C420.778 271.534 421.674 270.796 422.304 269.851C422.933 268.905 423.268 267.794 423.266 266.658C423.263 265.14 422.658 263.685 421.585 262.612C420.512 261.538 419.057 260.934 417.539 260.931Z" fill="#9C14D9"/>
<path opacity="0.3" d="M480.866 284.004H376.99C376.185 284.004 375.412 283.685 374.841 283.116C374.27 282.547 373.948 281.776 373.944 280.97C373.944 280.162 374.265 279.387 374.837 278.816C375.408 278.245 376.183 277.924 376.99 277.924H480.866C481.266 277.924 481.661 278.003 482.03 278.156C482.399 278.309 482.734 278.534 483.016 278.817C483.298 279.1 483.521 279.436 483.673 279.805C483.825 280.175 483.902 280.57 483.9 280.97C483.9 281.775 483.581 282.546 483.012 283.115C482.443 283.684 481.671 284.004 480.866 284.004Z" fill="black"/>
<path d="M434.661 284.004H423.195V375.732H434.661V284.004Z" fill="#263238"/>
<path d="M446.257 284.004H468.13V286.192C468.13 286.859 467.865 287.499 467.393 287.971C466.921 288.443 466.281 288.708 465.614 288.708H448.773C448.106 288.708 447.466 288.443 446.994 287.971C446.522 287.499 446.257 286.859 446.257 286.192V284.004Z" fill="#263238"/>
<path d="M437.496 353H420.361V444.728H437.496V353Z" fill="#263238"/>
<path d="M440.377 409.53H417.48V501.258H440.377V409.53Z" fill="#263238"/>
<path d="M453.689 501.258H404.168C404.168 499.902 404.707 498.6 405.666 497.641C406.625 496.682 407.927 496.143 409.283 496.143H448.573C449.93 496.143 451.231 496.682 452.191 497.641C453.15 498.6 453.689 499.902 453.689 501.258Z" fill="#263238"/>
<path d="M164.805 284.004H153.339V375.732H164.805V284.004Z" fill="#263238"/>
<path d="M167.639 353H150.505V444.728H167.639V353Z" fill="#263238"/>
<path d="M170.52 409.53H147.623V501.258H170.52V409.53Z" fill="#263238"/>
<path d="M183.832 501.258H134.311C134.311 499.902 134.85 498.6 135.809 497.641C136.769 496.682 138.07 496.143 139.427 496.143H178.752C180.109 496.143 181.41 496.682 182.369 497.641C183.329 498.6 183.868 499.902 183.868 501.258H183.832Z" fill="#263238"/>
<path d="M301.374 274.267H160.512C160.028 274.27 159.564 274.465 159.223 274.808C158.881 275.152 158.689 275.617 158.689 276.101C158.693 276.584 158.886 277.046 159.227 277.387C159.568 277.728 160.03 277.921 160.512 277.924H301.374C301.858 277.924 302.323 277.733 302.667 277.391C303.01 277.05 303.205 276.586 303.208 276.101C303.208 275.615 303.015 275.148 302.671 274.804C302.327 274.46 301.86 274.267 301.374 274.267Z" fill="#9C14D9"/>
<path opacity="0.3" d="M301.374 274.267H160.512C160.028 274.27 159.564 274.465 159.223 274.808C158.881 275.152 158.689 275.617 158.689 276.101C158.693 276.584 158.886 277.046 159.227 277.387C159.568 277.728 160.03 277.921 160.512 277.924H301.374C301.858 277.924 302.323 277.733 302.667 277.391C303.01 277.05 303.205 276.586 303.208 276.101C303.208 275.615 303.015 275.148 302.671 274.804C302.327 274.46 301.86 274.267 301.374 274.267Z" fill="black"/>
<path d="M252.193 208.587H152.233C151.575 208.571 150.922 208.702 150.321 208.97C149.72 209.238 149.187 209.637 148.759 210.137C148.331 210.637 148.02 211.225 147.848 211.861C147.676 212.496 147.647 213.161 147.764 213.809L155.996 270.88C156.237 272.306 156.963 273.605 158.052 274.556C159.141 275.508 160.525 276.054 161.97 276.101H261.93C262.588 276.117 263.241 275.986 263.842 275.718C264.443 275.45 264.977 275.052 265.405 274.552C265.833 274.052 266.144 273.463 266.316 272.828C266.488 272.193 266.516 271.527 266.399 270.88L258.167 213.809C257.927 212.383 257.2 211.084 256.112 210.132C255.023 209.181 253.638 208.635 252.193 208.587Z" fill="#9C14D9"/>
<path opacity="0.2" d="M221.182 216.466C221.648 215.671 221.896 214.767 221.9 213.846C221.905 212.924 221.666 212.018 221.207 211.218C220.749 210.419 220.088 209.754 219.291 209.292C218.493 208.83 217.588 208.587 216.666 208.587H152.233C151.575 208.571 150.922 208.702 150.321 208.97C149.72 209.238 149.187 209.637 148.759 210.137C148.331 210.637 148.02 211.225 147.848 211.861C147.676 212.496 147.647 213.161 147.764 213.809L155.996 270.88C156.237 272.306 156.963 273.605 158.052 274.556C159.141 275.508 160.525 276.054 161.97 276.101H180.551C182.3 276.1 184.018 275.642 185.534 274.771C187.05 273.9 188.312 272.648 189.195 271.139L221.182 216.466Z" fill="white"/>
</svg>
