<svg width="29" height="29" viewBox="0 0 29 29" fill="none" xmlns="http://www.w3.org/2000/svg">
<path fill-rule="evenodd" clip-rule="evenodd" d="M14.5 1.20834C10.8296 1.20834 7.85413 4.18377 7.85413 7.85417C7.85413 11.5246 10.8296 14.5 14.5 14.5C18.1704 14.5 21.1458 11.5246 21.1458 7.85417C21.1458 4.18377 18.1704 1.20834 14.5 1.20834ZM10.2708 7.85417C10.2708 5.51846 12.1643 3.625 14.5 3.625C16.8357 3.625 18.7291 5.51846 18.7291 7.85417C18.7291 10.1899 16.8357 12.0833 14.5 12.0833C12.1643 12.0833 10.2708 10.1899 10.2708 7.85417Z" fill="#7902A6"/>
<path d="M9.66663 16.9167C5.66256 16.9167 2.41663 20.1626 2.41663 24.1667V26.5833C2.41663 27.2507 2.95762 27.7917 3.62496 27.7917C4.2923 27.7917 4.83329 27.2507 4.83329 26.5833V24.1667C4.83329 21.4973 6.99725 19.3333 9.66663 19.3333H19.3333C22.0026 19.3333 24.1666 21.4973 24.1666 24.1667V26.5833C24.1666 27.2507 24.7076 27.7917 25.375 27.7917C26.0423 27.7917 26.5833 27.2507 26.5833 26.5833V24.1667C26.5833 20.1626 23.3373 16.9167 19.3333 16.9167H9.66663Z" fill="#7902A6"/>
</svg>
