<svg width="71" height="71" viewBox="0 0 71 71" fill="none" xmlns="http://www.w3.org/2000/svg">
<path fill-rule="evenodd" clip-rule="evenodd" d="M35.5 2.95837C26.5138 2.95837 19.2292 10.2431 19.2292 19.2292C19.2292 28.2153 26.5138 35.5 35.5 35.5C44.4862 35.5 51.7708 28.2153 51.7708 19.2292C51.7708 10.2431 44.4862 2.95837 35.5 2.95837ZM25.1458 19.2292C25.1458 13.5107 29.7815 8.87504 35.5 8.87504C41.2184 8.87504 45.8542 13.5107 45.8542 19.2292C45.8542 24.9477 41.2184 29.5834 35.5 29.5834C29.7815 29.5834 25.1458 24.9477 25.1458 19.2292Z" fill="white"/>
<path d="M23.6667 41.4166C13.8636 41.4166 5.91666 49.3636 5.91666 59.1666V65.0833C5.91666 66.7172 7.24116 68.0416 8.87499 68.0416C10.5088 68.0416 11.8333 66.7172 11.8333 65.0833V59.1666C11.8333 52.6314 17.1313 47.3333 23.6667 47.3333H47.3333C53.8686 47.3333 59.1667 52.6314 59.1667 59.1666V65.0833C59.1667 66.7172 60.4911 68.0416 62.125 68.0416C63.7589 68.0416 65.0833 66.7172 65.0833 65.0833V59.1666C65.0833 49.3636 57.1364 41.4166 47.3333 41.4166H23.6667Z" fill="white"/>
</svg>
